<svg width="277" height="278" viewBox="0 0 277 278" xmlns="http://www.w3.org/2000/svg" xmlns:xlink="http://www.w3.org/1999/xlink"><title>Group</title><defs><linearGradient x1="79.903%" y1="12.995%" x2="21.484%" y2="88.39%" id="b"><stop stop-color="#FBDA61" offset="0%"/><stop stop-color="#E7963B" offset="49.117%"/><stop stop-color="#F1C50E" offset="100%"/></linearGradient><path d="M3.097 148.533l5.977-4.065c2.244-1.512 3.369-3.506 3.369-5.497 0-1.994-1.125-3.989-3.37-5.5l-5.976-4.047C1.023 128.014 0 126.367 0 124.808c0-1.806 1.367-3.499 4.05-4.58l6.703-2.723c2.984-1.207 4.558-3.408 4.558-5.808 0-1.643-.736-3.38-2.259-4.96l-5.023-5.215c-1.45-1.504-2.143-3.016-2.143-4.362-.004-2.132 1.744-3.84 5.008-4.427l7.112-1.254c3.684-.66 5.784-3.032 5.784-5.947 0-1.298-.417-2.705-1.294-4.115l-3.837-6.135c-.867-1.4-1.277-2.705-1.277-3.844 0-2.596 2.147-4.3 5.911-4.166l7.232.232c4.29.152 7.013-2.353 7.013-5.94 0-.924-.177-1.917-.558-2.954l-2.459-6.806c-.384-1.063-.566-2.035-.566-2.901 0-3.278 2.615-4.997 6.757-3.963l7.02 1.733c4.799 1.196 8.284-1.476 8.284-6.015 0-.432-.033-.878-.095-1.338l-1.008-7.18a10.286 10.286 0 0 1-.101-1.41c0-4.344 3.184-6.168 7.58-4.018l6.509 3.166c4.863 2.35 9.16-.124 9.53-5.5l.515-7.213c.388-5.395 4.19-7.092 8.454-3.767l5.712 4.438c4.261 3.325 8.965 1.788 10.466-3.394l1.998-6.95c1.505-5.197 5.57-6.063 9.056-1.926l4.653 5.533c3.481 4.137 8.399 3.626 10.945-1.15l3.394-6.381c2.55-4.757 6.716-4.757 9.266 0l3.394 6.382c2.546 4.775 7.464 5.286 10.945 1.149l4.671-5.533c3.467-4.137 7.533-3.27 9.038 1.925l1.998 6.951c1.501 5.182 6.205 6.719 10.466 3.394l5.712-4.438c4.265-3.325 8.065-1.628 8.453 3.767l.515 7.212c.388 5.377 4.668 7.85 9.531 5.5l6.51-3.165c4.395-2.15 7.58-.326 7.58 4.018 0 .442-.034.913-.102 1.41l-1.009 7.18c-.065.46-.094.906-.094 1.338 0 4.543 3.485 7.211 8.283 6.015l7.021-1.733c4.153-1.034 6.756.685 6.756 3.956 0 .866-.18 1.845-.565 2.908l-2.46 6.805c-.38 1.038-.558 2.031-.558 2.952 0 3.59 2.728 6.095 7.032 5.943l7.214-.232c3.764-.134 5.91 1.57 5.91 4.166 0 1.139-.409 2.444-1.276 3.844l-3.837 6.135c-.877 1.41-1.294 2.817-1.294 4.115 0 2.915 2.1 5.287 5.784 5.947l7.112 1.254c3.264.587 5.008 2.295 5.008 4.427 0 1.346-.696 2.858-2.143 4.362l-5.023 5.214c-1.523 1.581-2.26 3.318-2.26 4.96 0 2.401 1.574 4.602 4.56 5.81l6.701 2.723c2.684 1.08 4.05 2.773 4.05 4.579 0 1.56-1.022 3.205-3.096 4.616l-5.977 4.046c-2.245 1.512-3.369 3.507-3.369 5.5 0 1.992 1.124 3.986 3.37 5.498l5.976 4.065c2.074 1.403 3.097 3.045 3.097 4.604 0 1.803-1.367 3.5-4.051 4.59l-6.702 2.706c-2.985 1.207-4.558 3.408-4.558 5.809 0 1.642.736 3.379 2.259 4.96l5.023 5.214c1.447 1.505 2.143 3.02 2.143 4.37 0 2.131-1.744 3.843-5.008 4.42l-7.112 1.272c-3.685.649-5.784 3.017-5.784 5.936 0 1.301.417 2.708 1.294 4.126l3.837 6.135c.867 1.392 1.277 2.698 1.277 3.833 0 2.588-2.147 4.3-5.911 4.177l-7.214-.25c-4.304-.142-7.032 2.36-7.032 5.953 0 .925.178 1.918.559 2.959l2.459 6.791c.384 1.063.565 2.038.565 2.905 0 3.274-2.603 4.993-6.756 3.974l-7.02-1.752c-4.799-1.178-8.284 1.48-8.284 6.03 0 .432.03.878.094 1.342l1.009 7.161c.068.497.101.968.101 1.414 0 4.34-3.184 6.164-7.58 4.014l-6.509-3.165c-4.863-2.35-9.143.127-9.53 5.518l-.516 7.212c-.388 5.396-4.188 7.074-8.453 3.75l-5.712-4.439c-4.261-3.325-8.965-1.784-10.466 3.394l-1.998 6.951c-1.505 5.196-5.57 6.063-9.038 1.926l-4.67-5.534c-3.482-4.137-8.4-3.607-10.946 1.15l-3.394 6.381c-2.55 4.776-6.717 4.776-9.266 0l-3.394-6.381c-2.546-4.757-7.464-5.287-10.945-1.15l-4.653 5.534c-3.485 4.137-7.55 3.27-9.056-1.926l-1.998-6.95c-1.501-5.179-6.205-6.72-10.466-3.395l-5.712 4.439c-4.265 3.324-8.066 1.646-8.454-3.75l-.515-7.212c-.37-5.391-4.667-7.868-9.53-5.518l-6.51 3.165c-4.395 2.15-7.58.326-7.58-4.014 0-.446.033-.917.102-1.414l1.008-7.161c.062-.464.095-.91.095-1.342 0-4.554-3.485-7.208-8.283-6.03l-7.021 1.752c-4.142 1.019-6.757-.704-6.757-3.982 0-.866.182-1.838.566-2.897l2.459-6.791c.38-1.04.558-2.038.558-2.959 0-3.593-2.723-6.095-7.013-5.954l-7.232.25c-3.764.124-5.91-1.588-5.91-4.176 0-1.135.409-2.44 1.276-3.833l3.837-6.135c.877-1.418 1.294-2.825 1.294-4.126 0-2.92-2.1-5.287-5.784-5.936l-7.112-1.273c-3.264-.576-5.008-2.288-5.008-4.42 0-1.349.693-2.864 2.143-4.37l5.023-5.213c1.523-1.581 2.26-3.318 2.26-4.96 0-2.4-1.575-4.602-4.56-5.81l-6.701-2.704C1.367 156.636 0 154.94 0 153.138c0-1.56 1.023-3.202 3.097-4.605z" id="a"/><path id="d" d="M.604.396v217.962h224.999V.396H.604z"/><path id="f" d="M.603.397h225v231.96h-225V.396z"/><path id="h" d="M225.603.396v217.962h-225V.396h225z"/><path id="j" d="M.604 232.356V.396h224.999v231.96H.604z"/><path id="l" d="M.387.397H30.75V72.62H.387V.397z"/><path id="n" d="M.35.397h23.034v78.14H.349V.397z"/><path id="p" d="M.822.397h23.034v78.14H.822z"/><path id="r" d="M.458.397h30.364V72.62H.457V.397z"/><path id="t" d="M.604.396v228.041h224.999V.397H.604z"/><path id="v" d="M.604.437h225v221.96h-225z"/><path id="x" d="M225.604.396v228.041h-225V.397h225z"/><path id="z" d="M.604 222.397V.437h224.999v221.96H.604z"/><path id="B" d="M.385.437H30.75v62.196H.385V.437z"/><path id="D" d="M.58.437h30.357v58.086H.579V.437z"/><path id="F" d="M.675.437h39.633v75.54H.675V.436z"/><path id="H" d="M.349.437h23.035v68.114H.35V.437z"/><path id="J" d="M.748.437h2.18v28.52H.748V.437z"/><path id="L" d="M.898.437h39.634v75.54H.898V.436z"/><path id="N" d="M.822.437h23.035v68.115H.822V.437z"/><path id="P" d="M.457.437h30.365v62.196H.457V.437z"/><path id="R" d="M.278.437h2.18v28.52H.277V.436z"/><path id="T" d="M.268.437h30.358v58.086H.267V.437z"/><linearGradient x1="50%" y1="100%" x2="50%" y2="0%" id="V"><stop stop-color="#6CBE45" offset="0%"/><stop stop-color="#74C169" offset="55%"/><stop stop-color="#C8E9EB" offset="100%"/></linearGradient></defs><g fill="none" fill-rule="evenodd"><g><mask id="c" fill="#fff"><use xlink:href="#a"/></mask><use fill="url(#b)" xlink:href="#a"/><g mask="url(#c)"><path fill="#FBB100" d="M-86.396 412.535h449.999V-37.387H-86.396z"/><g transform="translate(-87 194.176)"><mask id="e" fill="#fff"><use xlink:href="#d"/></mask><path d="M-376.895 602.79c-121.53-121.506-174.548-285.57-159.066-444.213A657.534 657.534 0 0 1-614.272.396c-77.876 230.993-24.777 496.406 159.304 680.455C-270.888 864.9-5.43 917.991 225.602 840.126a657.631 657.631 0 0 1-158.205-78.297c-158.671 15.48-322.763-37.53-444.292-159.038" fill="#FFC500" mask="url(#e)"/></g><g transform="translate(138 -37.783)"><mask id="g" fill="#fff"><use xlink:href="#f"/></mask><path d="M681.175-448.097C497.095-632.147 231.634-685.237.603-607.374a657.753 657.753 0 0 1 158.207 78.298c158.67-15.478 322.763 37.53 444.293 159.038C724.63-248.53 777.65-84.465 762.167 74.177a657.62 657.62 0 0 1 78.313 158.18c77.875-230.992 24.775-496.405-159.305-680.454" fill="#D96B16" mask="url(#g)"/></g><g transform="translate(138 194.176)"><mask id="i" fill="#fff"><use xlink:href="#h"/></mask><path d="M603.1 602.79C481.575 724.3 317.48 777.31 158.81 761.83A657.583 657.583 0 0 1 .603 840.125c231.034 77.864 496.492 24.773 680.572-159.275C865.255 496.802 918.355 231.39 840.478.396a657.46 657.46 0 0 1-78.311 158.18C777.65 317.22 724.63 481.285 603.1 602.792" fill="#FFC500" mask="url(#i)"/></g><g transform="translate(-87 -37.783)"><mask id="k" fill="#fff"><use xlink:href="#j"/></mask><path d="M-376.895-370.037c121.529-121.508 285.62-174.518 444.292-159.039a657.746 657.746 0 0 1 158.206-78.297C-5.43-685.236-270.888-632.146-454.968-448.097-639.05-264.049-692.148 1.364-614.272 232.356a657.54 657.54 0 0 1 78.31-158.178c-15.481-158.644 37.538-322.707 159.067-444.215" fill="#D96B16" mask="url(#k)"/></g><path d="M286.63 295.42a128.53 128.53 0 0 1 5.818-3.158 380.477 380.477 0 0 0-7.423-21.537 465.857 465.857 0 0 1-17.309 20.256 320.506 320.506 0 0 0 18.914 4.439" fill="#FFD200"/><path d="M275.38 151.32a182.93 182.93 0 0 1-3.775-1.732 427.392 427.392 0 0 1-1.666 3.403 262.351 262.351 0 0 1 5.441-1.671" fill="#FEA700"/><path d="M271.605 149.588c1.254.592 2.512 1.17 3.775 1.731a266.66 266.66 0 0 1 29.196-6.813 458.19 458.19 0 0 0-15.297-20.725 150.492 150.492 0 0 1-5.365-2.468 380.461 380.461 0 0 1-12.31 28.275" fill="#FE9D00"/><path d="M230.654 220.112c-.793-.4-1.586-.802-2.377-1.212a381.013 381.013 0 0 1-4.88 6.087 220.396 220.396 0 0 1 7.257-4.875" fill="#FFCD00"/><path d="M245.892 194.573a384.97 384.97 0 0 1 7.969 12.487 220.68 220.68 0 0 1 31.797-12.487 220.544 220.544 0 0 1-31.797-12.483 383.718 383.718 0 0 1-7.969 12.483" fill="#FFC400"/><path d="M230.654 220.112a219.537 219.537 0 0 1 23.207-13.052 383.27 383.27 0 0 0-7.97-12.487 381.62 381.62 0 0 1-17.614 24.327c.79.41 1.584.813 2.377 1.212" fill="#FFC900"/><path d="M269.939 152.991a381.757 381.757 0 0 1-16.078 29.1 220.635 220.635 0 0 0 31.797 12.482 222.354 222.354 0 0 1 44.486-8.767 455.536 455.536 0 0 0-12.527-21.462 184.415 184.415 0 0 1-42.237-13.024c-1.82.534-3.632 1.096-5.441 1.671" fill="#FEB500"/><path d="M317.617 164.345a458.248 458.248 0 0 0-13.04-19.839 266.575 266.575 0 0 0-29.196 6.814 184.456 184.456 0 0 0 42.236 13.025" fill="#FEA700"/><path d="M220.003 275.96c.453-.453.916-.894 1.373-1.34-1.644-.727-3.289-1.452-4.924-2.211.758 1.636 1.483 3.28 2.211 4.924.447-.458.887-.92 1.34-1.374" fill="#FFD100"/><path d="M216.453 272.409a316.954 316.954 0 0 1-24.97-12.956 386.968 386.968 0 0 1-22.462 19.9 224.099 224.099 0 0 0-4.875 7.256 264.529 264.529 0 0 1 16.049 39.278c1.13.563 2.268 1.116 3.404 1.665 8.577-18.113 20.266-35.118 35.065-50.219a299.985 299.985 0 0 0-2.211-4.924" fill="#FFD700"/><path d="M275.38 237.827a262.286 262.286 0 0 1-5.44-1.67 427.41 427.41 0 0 1 1.665 3.404 183.017 183.017 0 0 1 3.775-1.734" fill="#FFCF00"/><path d="M223.398 224.987a387.984 387.984 0 0 1-19.902 22.459 317.505 317.505 0 0 1 12.957 24.963c1.634.757 3.279 1.485 4.924 2.212 15.103-14.797 32.11-26.484 50.228-35.06a381.798 381.798 0 0 0-1.666-3.403 264.622 264.622 0 0 1-39.285-16.046 219.338 219.338 0 0 0-7.256 4.875" fill="#FFD000"/><path d="M191.484 259.453a316.954 316.954 0 0 0 24.969 12.956 316.851 316.851 0 0 0-12.96-24.964 394.297 394.297 0 0 1-5.933 6.075 389.726 389.726 0 0 1-6.076 5.933" fill="#FFD000"/><path d="M269.939 236.157a260.43 260.43 0 0 0 5.44 1.67 184.51 184.51 0 0 1 42.238-13.024 455.983 455.983 0 0 0 12.527-21.459 222.362 222.362 0 0 1-44.486-8.771 220.998 220.998 0 0 0-31.8 12.486 381.091 381.091 0 0 1 16.08 29.098" fill="#FC0"/><path d="M269.939 236.157a381.091 381.091 0 0 0-16.08-29.098 220.274 220.274 0 0 0-23.205 13.053 264.622 264.622 0 0 0 39.285 16.045" fill="#FC0"/><path d="M218.663 277.333a317.545 317.545 0 0 1 12.29 32.44 155.816 155.816 0 0 1 10.84-12.03c3.86-3.86 7.88-7.47 12.03-10.837a317.532 317.532 0 0 1-32.446-12.286c-.457.446-.92.884-1.374 1.34-.452.452-.892.915-1.34 1.373" fill="#FFD600"/><path d="M218.663 277.333c-14.798 15.098-26.488 32.105-35.064 50.22a380.177 380.177 0 0 0 28.278 12.306 153.215 153.215 0 0 1 19.075-30.086 317.545 317.545 0 0 0-12.288-32.44" fill="#FFD900"/><path d="M271.605 239.561a380.44 380.44 0 0 1 12.309 28.273 154.14 154.14 0 0 1 5.365-2.468 458.674 458.674 0 0 0 15.297-20.723 266.214 266.214 0 0 1-29.196-6.816c-1.263.565-2.521 1.141-3.775 1.734" fill="#FFD000"/><path d="M253.824 286.906a153.115 153.115 0 0 1 30.09-19.071 380.28 380.28 0 0 0-12.31-28.274c-18.116 8.576-35.124 20.262-50.23 35.06a318.214 318.214 0 0 0 32.45 12.286" fill="#FFD000"/><path d="M304.576 244.643a457.655 457.655 0 0 0 13.04-19.838 184.352 184.352 0 0 0-42.235 13.022 266.09 266.09 0 0 0 29.195 6.816" fill="#FFCF00"/><path d="M267.716 290.98a465.213 465.213 0 0 0 17.31-20.255c-.367-.966-.74-1.928-1.113-2.89a153.237 153.237 0 0 0-30.09 19.072 317.114 317.114 0 0 0 13.893 4.072" fill="#FFD200"/><path d="M245.384 1.167a320.708 320.708 0 0 1-4.535 38.202 383.307 383.307 0 0 1 16.558-4.53 106.519 106.519 0 0 1-12.023-33.672" fill="#EC7213"/><g transform="translate(245 -37.783)"><mask id="m" fill="#fff"><use xlink:href="#l"/></mask><path d="M30.75 68.512C18.727 49.872 14.354 27.735 17.637 6.549A553.18 553.18 0 0 0 3.395-4.049c-.654.15-1.31.293-1.964.444-.39 1.72-.74 3.446-1.044 5.178a321.866 321.866 0 0 1 0 37.377 106.44 106.44 0 0 0 12.02 33.671 384.094 384.094 0 0 1 18.343-4.11" fill="#E77113" mask="url(#m)"/></g><path d="M276.5-20.208a555.556 555.556 0 0 0-13.863-11.026c-3.283 21.186 1.09 43.324 13.113 61.962a384.495 384.495 0 0 1 16.19-2.856c-10.9-14.077-16.05-31.157-15.44-48.08" fill="#E67013"/><path d="M291.939 27.872c4.881-.754 9.775-1.41 14.676-1.975a61.618 61.618 0 0 1-17.239-35.19 555.432 555.432 0 0 0-12.877-10.915c-.609 16.923 4.542 34.003 15.44 48.08" fill="#E87013"/><path d="M57.204 275.96c.453.452.891.915 1.338 1.373.728-1.645 1.456-3.288 2.212-4.924-1.634.759-3.278 1.484-4.922 2.211.456.446.92.887 1.372 1.34" fill="#FFD100"/><path d="M55.832 274.62a317.566 317.566 0 0 1-32.45 12.286 155.49 155.49 0 0 1 22.874 22.867 317.62 317.62 0 0 1 12.286-32.44c-.447-.458-.885-.92-1.338-1.374-.453-.452-.916-.893-1.372-1.338" fill="#FFD800"/><path d="M218.663 111.816c-.728 1.644-1.452 3.289-2.21 4.921 1.634-.756 3.278-1.482 4.924-2.21-.457-.446-.92-.885-1.374-1.338-.452-.453-.892-.916-1.34-1.373" fill="#FE9602"/><path d="M220.003 113.19c.453.452.916.89 1.373 1.338a318.009 318.009 0 0 1 32.447-12.287 155.435 155.435 0 0 1-22.87-22.867 317.667 317.667 0 0 1-12.29 32.442c.447.457.887.92 1.34 1.373" fill="#FD9207"/><path d="M267.716 98.168a319.73 319.73 0 0 1 18.914-4.44 128.59 128.59 0 0 1-26.682-20.479 128.45 128.45 0 0 1-20.48-26.677 320.577 320.577 0 0 1-4.443 18.91 465.752 465.752 0 0 1 32.691 32.685" fill="#FA8706"/><path d="M253.824 102.242a316.321 316.321 0 0 1 13.893-4.074 464.92 464.92 0 0 0-15.94-16.747 465.058 465.058 0 0 0-16.752-15.938 320.613 320.613 0 0 1-4.072 13.892 155.782 155.782 0 0 0 10.838 12.029 156.258 156.258 0 0 0 12.033 10.838" fill="#FB8C06"/><path d="M259.949 73.25a128.454 128.454 0 0 0 26.682 20.477c2.396-.488 4.799-.949 7.205-1.38a386.514 386.514 0 0 0 4.53-16.557 107.102 107.102 0 0 1-23.286-17.669 107.047 107.047 0 0 1-17.672-23.283 383.35 383.35 0 0 0-16.56 4.532 311.993 311.993 0 0 1-1.381 7.203 128.557 128.557 0 0 0 20.482 26.677" fill="#F98606"/><path d="M287.689 45.514a89.355 89.355 0 0 1-11.94-14.786 384.094 384.094 0 0 0-18.341 4.11A106.968 106.968 0 0 0 275.08 58.12a107.087 107.087 0 0 0 23.287 17.67 386.7 386.7 0 0 0 4.11-18.34 89.429 89.429 0 0 1-14.788-11.937" fill="#F98206"/><path d="M302.476 57.452a381.621 381.621 0 0 0 2.857-16.187 75.387 75.387 0 0 1-7.136-6.256 74.596 74.596 0 0 1-6.258-7.137 386.404 386.404 0 0 0-16.19 2.856 89.412 89.412 0 0 0 11.94 14.786 89.55 89.55 0 0 0 14.787 11.938" fill="#F77E07"/><path d="M108.185 279.354a387.34 387.34 0 0 1-22.463-19.9 316.255 316.255 0 0 1-24.969 12.955c-.756 1.635-1.482 3.279-2.211 4.924 14.801 15.1 26.489 32.106 35.067 50.22 1.137-.551 2.271-1.103 3.404-1.666a264.187 264.187 0 0 1 16.049-39.278 219.873 219.873 0 0 0-4.877-7.255" fill="#FFD900"/><path d="M46.255 309.774a153.083 153.083 0 0 1 19.074 30.085 380.255 380.255 0 0 0 28.28-12.306c-8.579-18.114-20.266-35.12-35.065-50.222a317.376 317.376 0 0 0-12.289 32.443" fill="#FFDB00"/><path d="M138.603 221.31a321.085 321.085 0 0 1-11.826 10.027 266.08 266.08 0 0 1 11.826 14.466 267.065 267.065 0 0 1 11.828-14.466 321.142 321.142 0 0 1-11.828-10.028" fill="#FFCE00"/><path d="M90.107 256.893a222.456 222.456 0 0 1 18.078 22.461 397.37 397.37 0 0 0 6.088 4.878 264.545 264.545 0 0 1 24.33-38.429 266.892 266.892 0 0 0-11.828-14.466 318.006 318.006 0 0 1-36.668 25.556" fill="#FFD000"/><path d="M85.722 259.453a386.968 386.968 0 0 0 22.463 19.9 222.18 222.18 0 0 0-18.078-22.46 311.003 311.003 0 0 1-4.385 2.56" fill="#FFD100"/><path d="M165.343 194.573a321.144 321.144 0 0 1 10.03 11.827 267.89 267.89 0 0 1 14.468-11.827 266.86 266.86 0 0 1-14.469-11.823 320.2 320.2 0 0 1-10.029 11.823" fill="#FFC500"/><path d="M138.603 221.31a321.142 321.142 0 0 0 11.828 10.027c3.854-4.392 7.858-8.7 12.049-12.89 4.191-4.191 8.5-8.195 12.893-12.047a322.158 322.158 0 0 0-10.03-11.827 324.016 324.016 0 0 1-12.965 13.773 324.695 324.695 0 0 1-13.775 12.963" fill="#FFCA00"/><path d="M230.654 169.037a223.671 223.671 0 0 1-7.256-4.876 377.68 377.68 0 0 1 4.879 6.087c.79-.41 1.584-.81 2.377-1.21" fill="#FEB100"/><path d="M175.373 182.75a266.86 266.86 0 0 0 14.469 11.823 264.897 264.897 0 0 1 38.434-24.325 371.217 371.217 0 0 0-4.879-6.087 222.753 222.753 0 0 1-22.464-18.073 318.506 318.506 0 0 1-25.56 36.662" fill="#FEB400"/><path d="M216.453 116.738a316.502 316.502 0 0 1-12.96 24.964 386.57 386.57 0 0 1 19.905 22.459c2.393 1.682 4.815 3.3 7.256 4.876a264.67 264.67 0 0 1 39.285-16.046 356.26 356.26 0 0 0 1.666-3.403c-18.117-8.578-35.125-20.264-50.228-35.06-1.645.728-3.29 1.453-4.924 2.21" fill="#FE9F00"/><path d="M223.398 164.161a386.613 386.613 0 0 0-19.904-22.459 310.824 310.824 0 0 1-2.561 4.383 222.353 222.353 0 0 0 22.465 18.076" fill="#FEAA00"/><path d="M221.376 114.528c15.102 14.796 32.111 26.482 50.23 35.06a380.45 380.45 0 0 0 12.307-28.275 153.15 153.15 0 0 1-30.09-19.072 317.83 317.83 0 0 0-32.447 12.287" fill="#FE9B00"/><path d="M267.716 98.168a463.488 463.488 0 0 1 17.31 20.257 381.57 381.57 0 0 0 7.422-21.538c-1.96-1-3.9-2.053-5.818-3.16a319.73 319.73 0 0 0-18.914 4.441" fill="#FE9504"/><path d="M253.824 102.242a153.161 153.161 0 0 0 30.09 19.071c.373-.961.746-1.924 1.11-2.888a463.462 463.462 0 0 0-17.307-20.257 316.321 316.321 0 0 0-13.893 4.074" fill="#FE9603"/><path d="M150.431 231.337a267.842 267.842 0 0 0-11.828 14.467 264.365 264.365 0 0 1 24.33 38.428 376.63 376.63 0 0 0 6.088-4.878 222.611 222.611 0 0 1 18.078-22.46 318.13 318.13 0 0 1-36.668-25.557" fill="#FFD000"/><path d="M138.603 245.803a264.405 264.405 0 0 0-24.33 38.43 383.92 383.92 0 0 0 24.33 17.612 383.92 383.92 0 0 0 24.33-17.612 264.235 264.235 0 0 0-24.33-38.43" fill="#FFD200"/><path d="M200.933 243.06a222.47 222.47 0 0 1 22.465-18.073 386.68 386.68 0 0 0 4.879-6.087 264.729 264.729 0 0 1-38.436-24.324 266.407 266.407 0 0 0-14.469 11.824 317.938 317.938 0 0 1 25.561 36.66" fill="#FC0"/><path d="M150.431 231.337a318.13 318.13 0 0 0 36.668 25.557 225.572 225.572 0 0 1 6.756-7.077c2.32-2.32 4.685-4.562 7.078-6.756a318.198 318.198 0 0 0-25.56-36.66 270.193 270.193 0 0 0-12.893 12.045 270.227 270.227 0 0 0-12.049 12.891" fill="#FFCE00"/><path d="M228.277 170.248a381.65 381.65 0 0 1 17.615 24.325 378.632 378.632 0 0 0 7.967-12.483 220.622 220.622 0 0 1-23.205-13.053c-.793.4-1.588.802-2.377 1.211" fill="#FEBD00"/><path d="M189.841 194.573a264.44 264.44 0 0 0 38.436 24.327 382.406 382.406 0 0 0 17.615-24.327 383.223 383.223 0 0 0-17.615-24.325 264.596 264.596 0 0 0-38.436 24.325" fill="#FFC400"/><path d="M253.86 182.09a380.722 380.722 0 0 0 16.079-29.1 264.627 264.627 0 0 0-39.285 16.047 219.892 219.892 0 0 0 23.207 13.053" fill="#FEB300"/><path d="M169.02 279.354a387.34 387.34 0 0 0 22.464-19.9 333.6 333.6 0 0 1-4.385-2.561 222.734 222.734 0 0 0-18.078 22.461" fill="#FFD100"/><path d="M203.495 247.446a387.61 387.61 0 0 0 19.902-22.46 223.111 223.111 0 0 0-22.464 18.074 333.77 333.77 0 0 1 2.563 4.386" fill="#FFCF00"/><path d="M193.857 249.817a226.719 226.719 0 0 0-6.758 7.076c1.455.868 2.92 1.719 4.385 2.563a394.679 394.679 0 0 0 6.074-5.937 389.995 389.995 0 0 0 5.938-6.073 316.943 316.943 0 0 0-2.563-4.386 226.695 226.695 0 0 0-7.076 6.757" fill="#FFD000"/><path d="M1.828 237.827c1.262.562 2.52 1.142 3.774 1.734a427.41 427.41 0 0 1 1.666-3.404 264.081 264.081 0 0 1-5.44 1.67" fill="#FFCF00"/><path d="M5.601 239.561a188.842 188.842 0 0 0-3.774-1.734 266.214 266.214 0 0 1-29.196 6.816 459.44 459.44 0 0 0 15.297 20.723c1.801.783 3.587 1.613 5.366 2.468a380 380 0 0 1 12.307-28.273" fill="#FFD000"/><path d="M181.865 57.821a268.412 268.412 0 0 1-1.67 5.44 395.433 395.433 0 0 1 3.402-1.666 188.312 188.312 0 0 1-1.732-3.774" fill="#F98406"/><path d="M188.681 28.63c7.02 4.878 13.93 9.98 20.727 15.294-9.77-22.482-13.913-46.819-12.444-70.876-1.465.517-2.928 1.04-4.388 1.573.531 18.06-.77 36.162-3.895 54.009" fill="#E97113"/><path d="M183.6 61.595a380.723 380.723 0 0 1 28.276-12.306 154.112 154.112 0 0 1-2.468-5.365 458.972 458.972 0 0 0-20.727-15.294 265.979 265.979 0 0 1-6.816 29.19c.564 1.264 1.14 2.522 1.734 3.775" fill="#F77E07"/><path d="M209.408 43.924a466.684 466.684 0 0 1 5.359 4.254 381.723 381.723 0 0 1 21.54-7.423c-12.092-23.725-16.33-50.42-12.704-76.226a459.653 459.653 0 0 0-26.64 8.518c-1.467 24.058 2.675 48.395 12.445 70.877" fill="#E97212"/><path d="M214.767 48.178a466.684 466.684 0 0 0-5.359-4.254 153.263 153.263 0 0 0 2.468 5.365c.963-.374 1.926-.746 2.891-1.11" fill="#F77F07"/><g transform="translate(222 -37.783)"><mask id="o" fill="#fff"><use xlink:href="#n"/></mask><path d="M14.308 78.537c1.512-.47 3.025-.933 4.541-1.384a320.708 320.708 0 0 0 4.535-38.203 107.574 107.574 0 0 1 0-37.376c-.094-1.62-.183-3.239-.303-4.858A459.059 459.059 0 0 0 1.603 2.312c-3.625 25.807.613 52.501 12.705 76.225" fill="#EC7312" mask="url(#o)"/></g><path d="M245.384-36.21a107.574 107.574 0 0 0 0 37.377 320.54 320.54 0 0 0 0-37.376" fill="#E06D14"/><path d="M9.49 290.98a464.469 464.469 0 0 1-17.307-20.255 380.746 380.746 0 0 0-7.425 21.537c1.96 1 3.9 2.052 5.819 3.157a317.528 317.528 0 0 0 18.913-4.44" fill="#FFD300"/><path d="M46.552 220.112a218.29 218.29 0 0 1 7.256 4.875 398.534 398.534 0 0 1-4.879-6.087c-.789.41-1.582.813-2.377 1.212" fill="#FFCD00"/><path d="M60.753 272.409a316.851 316.851 0 0 1 12.96-24.964 387.648 387.648 0 0 1-19.905-22.459 221.44 221.44 0 0 0-7.256-4.874A264.73 264.73 0 0 1 7.27 236.157a368.538 368.538 0 0 0-1.668 3.404c18.117 8.576 35.127 20.262 50.23 35.06 1.645-.727 3.29-1.453 4.922-2.212" fill="#FFD000"/><path d="M55.832 274.62c-15.104-14.797-32.111-26.483-50.23-35.058-4.5 9.289-8.604 18.72-12.31 28.273a153.12 153.12 0 0 1 30.09 19.071 317.566 317.566 0 0 0 32.45-12.285" fill="#FFD000"/><path d="M23.384 286.906a153.15 153.15 0 0 0-30.09-19.071c-.375.963-.746 1.923-1.11 2.89a464.443 464.443 0 0 0 17.305 20.254 318.584 318.584 0 0 0 13.895-4.072" fill="#FFD200"/><path d="M111.863 194.573a322.162 322.162 0 0 1-10.03-11.823 265.321 265.321 0 0 1-14.468 11.823 266.34 266.34 0 0 1 14.469 11.827 323.118 323.118 0 0 1 10.029-11.827" fill="#FFC500"/><path d="M101.833 206.4a267.113 267.113 0 0 0-14.469-11.827A264.55 264.55 0 0 1 48.931 218.9a362.776 362.776 0 0 0 4.877 6.087 222.764 222.764 0 0 1 22.464 18.074 318.31 318.31 0 0 1 25.561-36.661" fill="#FC0"/><path d="M53.808 224.987a388.022 388.022 0 0 0 19.904 22.459c.844-1.466 1.692-2.93 2.561-4.386a222.887 222.887 0 0 0-22.465-18.073" fill="#FFCF00"/><path d="M138.603 167.84a319.163 319.163 0 0 1 11.828-10.027 267.494 267.494 0 0 1-11.828-14.469 266.507 266.507 0 0 1-11.826 14.469 319.106 319.106 0 0 1 11.826 10.026" fill="#FEA800"/><path d="M138.603 167.84a319.106 319.106 0 0 0-11.826-10.027 272.25 272.25 0 0 1-12.051 12.888 268.343 268.343 0 0 1-12.893 12.049 325.182 325.182 0 0 0 10.03 11.823A325.257 325.257 0 0 1 124.83 180.8a324.031 324.031 0 0 1 13.773-12.962" fill="#FEB900"/><path d="M164.146 102.54c-.4.792-.803 1.586-1.213 2.376a387.8 387.8 0 0 1 6.088 4.877 220.833 220.833 0 0 1-4.875-7.253" fill="#FE9406"/><path d="M187.1 132.254a222.734 222.734 0 0 1-18.079-22.461 397.086 397.086 0 0 0-6.086-4.876 264.603 264.603 0 0 1-24.332 38.428 267.454 267.454 0 0 0 11.828 14.467 318.015 318.015 0 0 1 36.668-25.558" fill="#FE9B00"/><path d="M169.02 109.793a387.715 387.715 0 0 1 22.464 19.9 317.63 317.63 0 0 1 24.969-12.955 304.509 304.509 0 0 0 2.21-4.922c-14.798-15.1-26.488-32.106-35.064-50.222a356.96 356.96 0 0 0-3.404 1.667 264.672 264.672 0 0 1-16.05 39.28 219.732 219.732 0 0 0 4.876 7.252" fill="#FD9006"/><path d="M191.484 129.694a387.34 387.34 0 0 0-22.463-19.9 222.734 222.734 0 0 0 18.078 22.46c1.455-.87 2.92-1.716 4.385-2.56" fill="#FE9800"/><path d="M230.953 79.374a153.086 153.086 0 0 1-19.076-30.085 380.982 380.982 0 0 0-28.278 12.306c8.577 18.116 20.266 35.12 35.065 50.221a318.138 318.138 0 0 0 12.289-32.442" fill="#FC8D06"/><path d="M239.466 46.573a129.562 129.562 0 0 1-3.158-5.82 381.735 381.735 0 0 0-21.54 7.425 463.888 463.888 0 0 1 20.26 17.305 320.544 320.544 0 0 0 4.438-18.91" fill="#F98206"/><path d="M230.953 79.374a319.746 319.746 0 0 0 4.072-13.891 463.94 463.94 0 0 0-20.258-17.305c-.964.365-1.927.737-2.89 1.11a153.086 153.086 0 0 0 19.076 30.086" fill="#F98606"/><path d="M240.85 39.37c-1.517.451-3.03.913-4.542 1.384 1 1.96 2.053 3.9 3.158 5.819.488-2.398.95-4.798 1.383-7.204" fill="#F67D08"/><path d="M73.712 247.446a316.851 316.851 0 0 0-12.959 24.963 316.604 316.604 0 0 0 24.97-12.955 408.446 408.446 0 0 1-6.075-5.933 389.764 389.764 0 0 1-5.936-6.075" fill="#FFD000"/><path d="M111.863 194.573a323.118 323.118 0 0 0-10.03 11.827 269.77 269.77 0 0 1 12.893 12.047 268.267 268.267 0 0 1 12.05 12.89 322.099 322.099 0 0 0 11.827-10.028 324.656 324.656 0 0 1-13.775-12.964 325.34 325.34 0 0 1-12.965-13.772" fill="#FFCB00"/><path d="M101.833 206.4a318.31 318.31 0 0 0-25.56 36.66 222.32 222.32 0 0 1 7.078 6.757 223.276 223.276 0 0 1 6.755 7.076 318.201 318.201 0 0 0 36.67-25.556 270.23 270.23 0 0 0-12.05-12.89 269.28 269.28 0 0 0-12.893-12.047" fill="#FFCE00"/><path d="M83.351 249.817a224.552 224.552 0 0 0-7.078-6.757 322.804 322.804 0 0 0-2.561 4.386 389.764 389.764 0 0 0 5.936 6.075 404.022 404.022 0 0 0 6.074 5.935 321.17 321.17 0 0 0 4.385-2.563 226.647 226.647 0 0 0-6.756-7.076" fill="#FFD000"/><path d="M150.431 157.812a320.432 320.432 0 0 0-11.828 10.026 325.327 325.327 0 0 1 13.775 12.965 322.77 322.77 0 0 1 12.965 13.77c3.453-3.879 6.8-7.82 10.03-11.824a270.24 270.24 0 0 1-12.893-12.048 270.207 270.207 0 0 1-12.049-12.89" fill="#FEB900"/><path d="M138.603 167.84A324.031 324.031 0 0 0 124.83 180.8a325.257 325.257 0 0 0-12.967 13.772 324.09 324.09 0 0 0 12.967 13.773 321.514 321.514 0 0 0 13.773 12.963 322.75 322.75 0 0 0 13.775-12.963c4.489-4.489 8.799-9.09 12.965-13.773a325.205 325.205 0 0 0-12.965-13.772 325.287 325.287 0 0 0-13.775-12.962" fill="#FFC400"/><path d="M162.48 170.702c4.19 4.19 8.5 8.194 12.893 12.048a318.422 318.422 0 0 0 25.56-36.663 226.658 226.658 0 0 1-7.076-6.756 225.59 225.59 0 0 1-6.758-7.076 318.188 318.188 0 0 0-36.668 25.557 271.204 271.204 0 0 0 12.049 12.89" fill="#FEAC00"/><path d="M197.56 135.628a403.528 403.528 0 0 1 5.934 6.073 316.482 316.482 0 0 0 12.959-24.962 316.943 316.943 0 0 0-24.969 12.955 389.87 389.87 0 0 1 6.076 5.934" fill="#FE9B00"/><path d="M191.484 129.694c-1.465.844-2.93 1.69-4.385 2.56a223.36 223.36 0 0 0 6.758 7.077 225.64 225.64 0 0 0 7.076 6.757c.869-1.457 1.717-2.92 2.56-4.386a398.744 398.744 0 0 0-5.933-6.073 385.4 385.4 0 0 0-6.076-5.935" fill="#FE9E00"/><path d="M31.314 194.573c-2.742-4.12-5.4-8.283-7.967-12.483A220.635 220.635 0 0 1-8.45 194.573a220.772 220.772 0 0 1 31.797 12.487 384.908 384.908 0 0 1 7.967-12.487" fill="#FFC400"/><path d="M7.269 236.157a380.379 380.379 0 0 1 16.078-29.098 220.894 220.894 0 0 0-31.798-12.486 222.372 222.372 0 0 1-44.487 8.771 457.755 457.755 0 0 0 12.528 21.46 184.534 184.534 0 0 1 42.238 13.023c1.818-.534 3.63-1.096 5.441-1.67" fill="#FC0"/><path d="M-40.41 224.805a459.18 459.18 0 0 0 13.04 19.839 266.642 266.642 0 0 0 29.197-6.817 184.407 184.407 0 0 0-42.237-13.022" fill="#FFCF00"/><path d="M46.552 169.037c.793.4 1.588.801 2.377 1.211a388.98 388.98 0 0 1 4.88-6.087 221.503 221.503 0 0 1-7.257 4.876" fill="#FEB100"/><path d="M46.552 169.037a219.864 219.864 0 0 1-23.205 13.053c2.566 4.2 5.225 8.363 7.97 12.483a382.401 382.401 0 0 1 17.612-24.325c-.789-.41-1.584-.81-2.377-1.21" fill="#FEBE00"/><path d="M113.062 102.54a220.897 220.897 0 0 1-4.877 7.253 387.8 387.8 0 0 1 6.088-4.877c-.41-.79-.811-1.584-1.211-2.376" fill="#FE9406"/><path d="M138.603 87.304c4.123-2.743 8.285-5.4 12.488-7.967a220.683 220.683 0 0 1-12.488-31.791 220.672 220.672 0 0 1-12.486 31.791 382.123 382.123 0 0 1 12.486 7.967" fill="#F98506"/><path d="M114.273 104.916a382.106 382.106 0 0 1 24.33-17.61 380.478 380.478 0 0 0-12.486-7.968 220.275 220.275 0 0 1-13.055 23.202c.4.792.8 1.586 1.21 2.376" fill="#FD9107"/><path d="M168.84 15.592a185.583 185.583 0 0 1-2.954-30.258 454.731 454.731 0 0 0-17.836 8.278 221.446 221.446 0 0 1-.678 9.454 457.994 457.994 0 0 1 21.467 12.526" fill="#E77014"/><path d="M180.195 63.262a268.41 268.41 0 0 0 1.67-5.44 184.385 184.385 0 0 1-13.027-42.23 457.36 457.36 0 0 0-21.463-12.526 222.193 222.193 0 0 1-8.772 44.48 220.735 220.735 0 0 0 12.487 31.792 380.516 380.516 0 0 1 29.105-16.076" fill="#F47B0B"/><path d="M188.681 28.63a267.592 267.592 0 0 0 3.895-54.009 456.989 456.989 0 0 0-26.692 10.713 185.818 185.818 0 0 0 2.955 30.258 457.726 457.726 0 0 1 19.842 13.038" fill="#E97113"/><path d="M188.681 28.63a457.726 457.726 0 0 0-19.842-13.038 184.227 184.227 0 0 0 13.026 42.229 265.979 265.979 0 0 0 6.816-29.191" fill="#F47B09"/><path d="M48.931 218.9a380.838 380.838 0 0 1-17.615-24.327 383.332 383.332 0 0 0-7.97 12.487 219.337 219.337 0 0 1 23.206 13.053c.793-.401 1.588-.803 2.38-1.213" fill="#FFC900"/><path d="M23.347 207.06a379.768 379.768 0 0 0-16.079 29.098 264.762 264.762 0 0 0 39.284-16.045 219.708 219.708 0 0 0-23.205-13.053" fill="#FFCD00"/><path d="M76.273 146.087a222.61 222.61 0 0 1-22.465 18.074 381.99 381.99 0 0 0-4.877 6.087 264.802 264.802 0 0 1 38.434 24.325 266.108 266.108 0 0 0 14.469-11.824 318.457 318.457 0 0 1-25.561-36.662" fill="#FEB300"/><path d="M87.365 194.573a264.578 264.578 0 0 0-38.434-24.325 383.257 383.257 0 0 0-17.617 24.325A382.439 382.439 0 0 0 48.93 218.9a264.42 264.42 0 0 0 38.434-24.327" fill="#FFC400"/><path d="M126.777 157.812c4.137-4.716 8.08-9.54 11.826-14.467a264.59 264.59 0 0 1-24.33-38.428 387.736 387.736 0 0 0-6.088 4.876 222.435 222.435 0 0 1-18.076 22.461 318.361 318.361 0 0 1 36.668 25.558" fill="#FE9C00"/><path d="M126.777 157.812a318.361 318.361 0 0 0-36.668-25.558 223.462 223.462 0 0 1-6.758 7.077 221.123 221.123 0 0 1-7.078 6.754 318.404 318.404 0 0 0 25.56 36.664 269.283 269.283 0 0 0 12.893-12.048 270.768 270.768 0 0 0 12.05-12.89" fill="#FEAC00"/><path d="M164.146 102.54a219.919 219.919 0 0 1-13.055-23.202 378.9 378.9 0 0 0-12.488 7.967 381.538 381.538 0 0 1 24.33 17.611c.41-.79.813-1.584 1.213-2.376" fill="#FD9107"/><path d="M138.603 143.345a264.28 264.28 0 0 0 24.33-38.428 382.357 382.357 0 0 0-24.33-17.613 382.357 382.357 0 0 0-24.33 17.613 264.45 264.45 0 0 0 24.33 38.428" fill="#FE9800"/><path d="M180.195 63.262a380.516 380.516 0 0 0-29.105 16.076 220.485 220.485 0 0 0 13.056 23.202 264.66 264.66 0 0 0 16.049-39.278" fill="#FC8D06"/><path d="M129.833 3.066a221.556 221.556 0 0 1-.676-9.453 456.086 456.086 0 0 0-17.836-8.279 185.704 185.704 0 0 1-2.953 30.258 456.545 456.545 0 0 1 21.465-12.526" fill="#E77014"/><path d="M138.603-1.614a456.427 456.427 0 0 0-9.445-4.774c.158 3.155.382 6.307.675 9.454a458.701 458.701 0 0 1 8.77-4.68" fill="#E66F14"/><path d="M1.828 151.32c1.818.535 3.63 1.096 5.44 1.671a411.452 411.452 0 0 1-1.666-3.404c-1.253.593-2.512 1.17-3.774 1.733" fill="#FEA600"/><path d="M7.269 152.991a266.149 266.149 0 0 0-5.441-1.671 184.453 184.453 0 0 1-42.238 13.024 457.304 457.304 0 0 0-12.528 21.462 222.363 222.363 0 0 1 44.487 8.767 220.532 220.532 0 0 0 31.796-12.483 381.042 381.042 0 0 1-16.076-29.099" fill="#FEB500"/><path d="M57.204 113.19c-.453.452-.916.89-1.372 1.338 1.644.727 3.288 1.454 4.922 2.21-.756-1.633-1.483-3.278-2.212-4.922-.447.457-.885.92-1.338 1.373" fill="#FE9602"/><path d="M53.808 164.161a387.36 387.36 0 0 1 19.904-22.459 316.482 316.482 0 0 1-12.959-24.963 284.566 284.566 0 0 0-4.922-2.21c-15.103 14.794-32.113 26.482-50.23 35.059.551 1.134 1.105 2.27 1.668 3.403a264.584 264.584 0 0 1 39.283 16.046 222.028 222.028 0 0 0 7.256-4.876" fill="#FE9F00"/><path d="M7.269 152.991a381.042 381.042 0 0 0 16.076 29.1 219.888 219.888 0 0 0 23.207-13.055A264.574 264.574 0 0 0 7.269 152.99" fill="#FEB200"/><path d="M95.341 57.821a168.352 168.352 0 0 1-1.734 3.774c1.138.55 2.273 1.104 3.406 1.666a256.29 256.29 0 0 1-1.672-5.44" fill="#F98406"/><path d="M60.753 116.738a316.592 316.592 0 0 1 24.97 12.956 387.34 387.34 0 0 1 22.462-19.9c1.681-2.392 3.3-4.813 4.877-7.254a264.446 264.446 0 0 1-16.049-39.278 411.707 411.707 0 0 0-3.405-1.667c-8.578 18.115-20.267 35.12-35.066 50.221.73 1.645 1.455 3.289 2.211 4.922" fill="#FD8F06"/><path d="M85.722 129.694a316.592 316.592 0 0 0-24.969-12.956 317.854 317.854 0 0 0 12.96 24.964 389.644 389.644 0 0 1 5.935-6.073 385.285 385.285 0 0 1 6.074-5.935" fill="#FE9B00"/><path d="M97.013 63.262a380.982 380.982 0 0 1 29.104 16.075 220.556 220.556 0 0 0 12.486-31.792 222.189 222.189 0 0 1-8.77-44.479 456.545 456.545 0 0 0-21.465 12.526 184.302 184.302 0 0 1-13.027 42.23c.535 1.818 1.096 3.63 1.672 5.44" fill="#F47B0B"/><path d="M126.117 79.337a380.294 380.294 0 0 0-29.104-16.075 264.443 264.443 0 0 0 16.049 39.276 219.905 219.905 0 0 0 13.055-23.2" fill="#FC8E07"/><path d="M148.048-6.387a458.958 458.958 0 0 0-9.445 4.773 453.058 453.058 0 0 1 8.77 4.68c.292-3.147.52-6.299.675-9.453" fill="#E66F14"/><path d="M138.603 47.546a222.12 222.12 0 0 0 8.771-44.48 450.298 450.298 0 0 0-8.771-4.68 453.136 453.136 0 0 0-8.77 4.68 222.189 222.189 0 0 0 8.77 44.48" fill="#F1770D"/><path d="M73.712 141.702a387.648 387.648 0 0 0-19.904 22.459 222.215 222.215 0 0 0 22.465-18.076 296.166 296.166 0 0 1-2.56-4.383" fill="#FEA800"/><path d="M108.185 109.793a387.715 387.715 0 0 0-22.463 19.9c1.467.845 2.93 1.692 4.385 2.561a222.18 222.18 0 0 0 18.078-22.46" fill="#FE9800"/><path d="M83.351 139.331a226.648 226.648 0 0 0 6.756-7.076 301.645 301.645 0 0 0-4.385-2.561 381.117 381.117 0 0 0-6.074 5.935 381.073 381.073 0 0 0-5.936 6.074 322.699 322.699 0 0 0 2.561 4.384 224.516 224.516 0 0 0 7.078-6.756" fill="#FE9E00"/><path d="M67.798 43.924A460.104 460.104 0 0 1 88.525 28.63 267.737 267.737 0 0 1 84.63-25.38a423.845 423.845 0 0 0-4.387-1.574C81.71-2.895 77.57 21.442 67.798 43.924" fill="#E87113"/><path d="M88.527 28.63a456.505 456.505 0 0 1 19.842-13.038 185.815 185.815 0 0 0 2.953-30.258A457.242 457.242 0 0 0 84.63-25.379a267.52 267.52 0 0 0 3.896 54.009" fill="#E97113"/><path d="M5.601 149.588a380.022 380.022 0 0 1-12.307-28.275 152.183 152.183 0 0 1-5.366 2.468 458.955 458.955 0 0 0-15.297 20.725 266.435 266.435 0 0 1 29.196 6.814c1.264-.563 2.522-1.14 3.774-1.732" fill="#FE9D00"/><path d="M-27.37 144.506a456.412 456.412 0 0 0-13.04 19.839A184.456 184.456 0 0 0 1.828 151.32a266.328 266.328 0 0 0-29.196-6.814" fill="#FEA800"/><path d="M58.542 111.816a318.154 318.154 0 0 1-12.289-32.443 155.049 155.049 0 0 1-10.838 12.03 155.886 155.886 0 0 1-12.033 10.839 317.794 317.794 0 0 1 32.45 12.285c.456-.446.92-.885 1.372-1.338.453-.453.891-.916 1.338-1.373" fill="#FD9207"/><path d="M23.384 102.242a153.249 153.249 0 0 1-30.09 19.072A380.429 380.429 0 0 0 5.6 149.588c18.12-8.577 35.127-20.265 50.23-35.06a317.483 317.483 0 0 0-32.447-12.286" fill="#FE9B00"/><path d="M93.609 61.595c.592-1.253 1.17-2.51 1.732-3.774a266.43 266.43 0 0 1-6.814-29.191 459.025 459.025 0 0 0-20.73 15.294 150.488 150.488 0 0 1-2.467 5.365 380.403 380.403 0 0 1 28.279 12.306" fill="#F77E07"/><path d="M58.542 111.816c14.8-15.101 26.488-32.105 35.066-50.22A380.661 380.661 0 0 0 65.33 49.288a152.935 152.935 0 0 1-19.076 30.085 318.154 318.154 0 0 0 12.29 32.443" fill="#FC8D06"/><path d="M108.369 15.592a458.045 458.045 0 0 0-19.842 13.037 266.505 266.505 0 0 0 6.815 29.192 184.385 184.385 0 0 0 13.027-42.23" fill="#F47B09"/><path d="M42.181 65.483a319.767 319.767 0 0 1-4.44-18.91A128.523 128.523 0 0 1 17.256 73.25 128.551 128.551 0 0 1-9.423 93.73 319.907 319.907 0 0 1 9.49 98.168a466.705 466.705 0 0 1 32.691-32.684" fill="#FA8706"/><path d="M-9.423 93.728a127.629 127.629 0 0 1-5.82 3.158 381.305 381.305 0 0 0 7.426 21.537A463.312 463.312 0 0 1 9.49 98.168a320.677 320.677 0 0 0-18.913-4.44" fill="#FE9504"/><path d="M40.898 40.754a382.06 382.06 0 0 1 21.543 7.424 466.486 466.486 0 0 1 5.357-4.254C77.57 21.442 81.71-2.894 80.244-26.953a459.87 459.87 0 0 0-26.64-8.519c3.624 25.808-.614 52.502-12.706 76.226" fill="#E97212"/><path d="M42.181 65.483a462.811 462.811 0 0 1 20.26-17.305 382.547 382.547 0 0 0-21.54-7.423c-1 1.96-2.056 3.9-3.16 5.818a319.767 319.767 0 0 0 4.44 18.91" fill="#F98206"/><path d="M46.255 79.374a316.99 316.99 0 0 1-4.074-13.891A468.426 468.426 0 0 0 25.43 81.421 468.46 468.46 0 0 0 9.49 98.168a318.993 318.993 0 0 1 13.895 4.073 156.384 156.384 0 0 0 12.031-10.837c3.861-3.86 7.473-7.88 10.84-12.03" fill="#FB8C06"/><path d="M9.49 98.168a462.749 462.749 0 0 0-17.307 20.257c.366.964.737 1.926 1.112 2.888a153.178 153.178 0 0 0 30.09-19.073A319.403 319.403 0 0 0 9.49 98.168" fill="#FE9603"/><path d="M65.332 49.288a154.237 154.237 0 0 0 2.466-5.365 475.425 475.425 0 0 0-5.358 4.255c.965.366 1.927.737 2.892 1.11" fill="#F77E07"/><path d="M46.255 79.374a153.179 153.179 0 0 0 19.076-30.085c-.965-.374-1.926-.746-2.89-1.111a462.811 462.811 0 0 0-20.26 17.305 316.99 316.99 0 0 0 4.074 13.89" fill="#F98606"/><path d="M36.357 39.37a321.121 321.121 0 0 1-4.535-38.203A106.516 106.516 0 0 1 19.8 34.838a382.87 382.87 0 0 1 16.557 4.531" fill="#EC7213"/><path d="M17.257 73.25A128.454 128.454 0 0 0 37.74 46.573a311.957 311.957 0 0 1-1.38-7.203 383.435 383.435 0 0 0-16.56-4.532A107.074 107.074 0 0 1 2.126 58.121a107.15 107.15 0 0 1-23.287 17.67 383.616 383.616 0 0 0 4.532 16.556c2.406.431 4.807.892 7.205 1.38a128.495 128.495 0 0 0 26.68-20.477" fill="#F98606"/><g transform="translate(31 -37.783)"><mask id="q" fill="#fff"><use xlink:href="#p"/></mask><path d="M.822 1.574a107.525 107.525 0 0 1 0 37.376 320.708 320.708 0 0 0 4.535 38.203c1.518.451 3.029.913 4.54 1.384C21.993 54.813 26.228 28.12 22.604 2.312A460.224 460.224 0 0 0 1.127-3.284C1.007-1.664.916-.046.822 1.574" fill="#EC7312" mask="url(#q)"/></g><path d="M40.898 40.754c-1.51-.47-3.023-.933-4.541-1.384.434 2.405.895 4.806 1.383 7.203a126.164 126.164 0 0 0 3.158-5.819" fill="#F77D07"/><g transform="translate(1 -37.783)"><mask id="s" fill="#fff"><use xlink:href="#r"/></mask><path d="M.458 68.512a384.328 384.328 0 0 1 18.34 4.109A106.445 106.445 0 0 0 30.822 38.95a321.866 321.866 0 0 1 0-37.377 105.912 105.912 0 0 0-1.047-5.178c-.654-.15-1.308-.295-1.963-.444A551.4 551.4 0 0 0 13.571 6.55C16.854 27.735 12.48 49.872.457 68.512" fill="#E77113" mask="url(#s)"/></g><path d="M-10.482 45.514A89.422 89.422 0 0 1-25.27 57.452a384.228 384.228 0 0 0 4.11 18.34A107.058 107.058 0 0 0 2.126 58.12 107.04 107.04 0 0 0 19.8 34.838a384.642 384.642 0 0 0-18.342-4.11 89.464 89.464 0 0 1-11.94 14.786" fill="#F98206"/><path d="M31.822 1.166a107.525 107.525 0 0 0 0-37.376 321.422 321.422 0 0 0 0 37.376" fill="#E06D14"/><path d="M-14.732 27.872c5.412.835 10.81 1.79 16.188 2.856C13.48 12.09 17.851-10.048 14.572-31.234A557.444 557.444 0 0 0 .708-20.208c.609 16.923-4.541 34.003-15.44 48.08" fill="#E67013"/><path d="M1.457 30.729a383.407 383.407 0 0 0-16.188-2.857 75.145 75.145 0 0 1-6.259 7.136 74.757 74.757 0 0 1-7.137 6.257A384.27 384.27 0 0 0-25.27 57.45a89.45 89.45 0 0 0 14.787-11.937A89.464 89.464 0 0 0 1.457 30.73" fill="#F77E07"/><path d="M-29.408 25.897c4.902.565 9.795 1.221 14.676 1.975C-3.832 13.796 1.317-3.284.708-20.208A560.045 560.045 0 0 0-12.168-9.294a61.605 61.605 0 0 1-17.24 35.191" fill="#E77013"/></g><g mask="url(#c)"><path fill="#7868DE" d="M-85.396 422.647h450v-450h-450z"/><g transform="translate(-86 194.21)"><mask id="u" fill="#fff"><use xlink:href="#t"/></mask><path d="M-376.895 602.895c-121.53-121.528-174.548-285.62-159.066-444.292A657.67 657.67 0 0 1-614.272.396c-77.876 231.033-24.777 496.492 159.304 680.572 184.08 184.081 449.539 237.18 680.57 159.304a657.651 657.651 0 0 1-158.206-78.31c-158.67 15.482-322.762-37.538-444.291-159.067" fill="#648EEC" mask="url(#u)"/></g><g transform="translate(139 -27.79)"><mask id="w" fill="#fff"><use xlink:href="#v"/></mask><path d="M681.176-458.175C497.094-642.255 231.635-695.355.604-617.479a657.761 657.761 0 0 1 158.207 78.311c158.67-15.48 322.76 37.537 444.29 159.066C724.632-258.572 777.65-94.48 762.169 64.19a657.67 657.67 0 0 1 78.31 158.207c77.876-231.032 24.778-496.49-159.302-680.572" fill="#3C006F" mask="url(#w)"/></g><g transform="translate(139 194.21)"><mask id="y" fill="#fff"><use xlink:href="#x"/></mask><path d="M603.101 602.895c-121.529 121.53-285.62 174.55-444.293 159.066A657.638 657.638 0 0 1 .603 840.272c231.031 77.876 496.49 24.777 680.57-159.304C865.255 496.888 918.355 231.43 840.478.396a657.67 657.67 0 0 1-78.31 158.207C777.65 317.274 724.63 481.367 603.1 602.895" fill="#6490EC" mask="url(#y)"/></g><g transform="translate(-86 -27.79)"><mask id="A" fill="#fff"><use xlink:href="#z"/></mask><path d="M-376.895-380.101c121.529-121.53 285.62-174.548 444.29-159.066a657.688 657.688 0 0 1 158.208-78.311C-5.43-695.354-270.888-642.255-454.968-458.174c-184.081 184.08-237.18 449.539-159.304 680.57a657.681 657.681 0 0 1 78.31-158.205c-15.481-158.671 37.538-322.763 159.067-444.292" fill="#380166" mask="url(#A)"/></g><path d="M287.629 295.47a128.61 128.61 0 0 1 5.82-3.159 380.094 380.094 0 0 0-7.425-21.54 462.707 462.707 0 0 1-17.307 20.26 320.777 320.777 0 0 0 18.912 4.44" fill="#A7B2FE"/><path d="M276.379 151.345a182.8 182.8 0 0 1-3.773-1.733 486.44 486.44 0 0 1-1.666 3.404 268.343 268.343 0 0 1 5.439-1.67" fill="#4545D9"/><path d="M272.605 149.612c1.252.594 2.51 1.17 3.775 1.732a266.568 266.568 0 0 1 29.196-6.814 459.797 459.797 0 0 0-15.297-20.729 152.314 152.314 0 0 1-5.367-2.466 379.842 379.842 0 0 1-12.307 28.277" fill="#433CD5"/><path d="M231.654 220.15c-.795-.4-1.588-.803-2.377-1.213a393.755 393.755 0 0 1-4.879 6.088 219.883 219.883 0 0 1 7.256-4.876" fill="#6B93D3"/><path d="M246.89 194.607a380.51 380.51 0 0 1 7.97 12.487 220.622 220.622 0 0 1 31.796-12.487 220.622 220.622 0 0 1-31.796-12.487 380.51 380.51 0 0 1-7.97 12.487" fill="#648CEC"/><path d="M231.654 220.15a219.853 219.853 0 0 1 23.205-13.056 378.85 378.85 0 0 0-7.969-12.487 382.2 382.2 0 0 1-17.613 24.33c.79.41 1.582.812 2.377 1.212" fill="#6C9CF0"/><path d="M270.937 153.016a380.275 380.275 0 0 1-16.078 29.104 220.555 220.555 0 0 0 31.8 12.487 222.324 222.324 0 0 1 44.485-8.77 458.229 458.229 0 0 0-12.527-21.465 184.376 184.376 0 0 1-42.239-13.027c-1.818.535-3.63 1.097-5.44 1.671" fill="#5869E1"/><path d="M318.617 164.372a459.612 459.612 0 0 0-13.04-19.842 266.418 266.418 0 0 0-29.198 6.816 184.267 184.267 0 0 0 42.238 13.026" fill="#4749DA"/><path d="M221.002 276.007c.453-.453.916-.892 1.373-1.34-1.644-.727-3.29-1.453-4.922-2.211.756 1.635 1.483 3.28 2.21 4.924.448-.457.886-.92 1.339-1.373" fill="#B2B0FF"/><path d="M217.451 272.456a316.883 316.883 0 0 1-24.967-12.958 386.989 386.989 0 0 1-22.463 19.904 225.27 225.27 0 0 0-4.877 7.255 264.517 264.517 0 0 1 16.049 39.285c1.133.563 2.268 1.117 3.404 1.667 8.579-18.118 20.266-35.126 35.067-50.23-.729-1.644-1.455-3.288-2.213-4.923" fill="#B9B1FF"/><path d="M276.379 237.869a262.113 262.113 0 0 1-5.44-1.671 486.44 486.44 0 0 1 1.667 3.404 177.665 177.665 0 0 1 3.773-1.733" fill="#91B2FB"/><path d="M224.398 225.025a387.736 387.736 0 0 1-19.904 22.463 318.105 318.105 0 0 1 12.96 24.968c1.632.757 3.276 1.484 4.921 2.211 15.103-14.798 32.111-26.489 50.23-35.065a369.132 369.132 0 0 0-1.668-3.404 264.669 264.669 0 0 1-39.285-16.049 220.867 220.867 0 0 0-7.254 4.876" fill="#9EB3FD"/><path d="M192.484 259.498a316.883 316.883 0 0 0 24.967 12.958 317.404 317.404 0 0 0-12.957-24.968 385.376 385.376 0 0 1-5.936 6.075 385.247 385.247 0 0 1-6.074 5.935" fill="#A8B3FE"/><path d="M270.937 236.198a268.02 268.02 0 0 0 5.441 1.671 184.376 184.376 0 0 1 42.24-13.027 458.229 458.229 0 0 0 12.526-21.464 222.256 222.256 0 0 1-44.486-8.772 220.676 220.676 0 0 0-31.799 12.488 380.275 380.275 0 0 1 16.078 29.104" fill="#79A6F4"/><path d="M270.937 236.198a380.275 380.275 0 0 0-16.078-29.104 220.269 220.269 0 0 0-23.207 13.056 264.771 264.771 0 0 0 39.285 16.048" fill="#7DAAF7"/><path d="M219.664 277.38a318.196 318.196 0 0 1 12.287 32.447 156.048 156.048 0 0 1 10.84-12.032 155.855 155.855 0 0 1 12.03-10.84 317.91 317.91 0 0 1-32.446-12.287c-.457.447-.92.885-1.373 1.339-.453.453-.891.916-1.338 1.373" fill="#B6AFFF"/><path d="M219.664 277.38c-14.801 15.103-26.488 32.11-35.066 50.229a380.198 380.198 0 0 0 28.279 12.309 153.113 153.113 0 0 1 19.074-30.091 318.196 318.196 0 0 0-12.287-32.447" fill="#BAB0FE"/><path d="M272.605 239.602a379.683 379.683 0 0 1 12.307 28.278 152.363 152.363 0 0 1 5.367-2.468 459.77 459.77 0 0 0 15.297-20.728 266.117 266.117 0 0 1-29.196-6.816 181.02 181.02 0 0 0-3.775 1.734" fill="#9FB4FD"/><path d="M254.822 286.956a153.221 153.221 0 0 1 30.09-19.076 380.518 380.518 0 0 0-12.307-28.278c-18.119 8.577-35.127 20.267-50.23 35.065a317.918 317.918 0 0 0 32.447 12.289" fill="#A6B5FE"/><path d="M305.576 244.684a456.474 456.474 0 0 0 13.039-19.842 184.318 184.318 0 0 0-42.234 13.027 266.164 266.164 0 0 0 29.195 6.815" fill="#8CB0FA"/><path d="M268.717 291.029a462.683 462.683 0 0 0 17.307-20.259c-.366-.965-.737-1.928-1.112-2.889a153.245 153.245 0 0 0-30.09 19.075 317.967 317.967 0 0 0 13.895 4.073" fill="#A8B2FE"/><path d="M246.385 1.167a320.82 320.82 0 0 1-4.537 38.209 382.603 382.603 0 0 1 16.558-4.532 106.545 106.545 0 0 1-12.021-33.677" fill="#3B007E"/><g transform="translate(246 -27.79)"><mask id="C" fill="#fff"><use xlink:href="#B"/></mask><path d="M30.75 58.523C18.727 39.88 14.355 17.74 17.635-3.45a550.234 550.234 0 0 0-14.24-10.599c-.655.15-1.31.293-1.963.444-.393 1.72-.743 3.445-1.047 5.18a321.977 321.977 0 0 1 0 37.382 106.514 106.514 0 0 0 12.02 33.676 386.576 386.576 0 0 1 18.345-4.11" fill="#3C007A" mask="url(#C)"/></g><g transform="translate(262 -27.79)"><mask id="E" fill="#fff"><use xlink:href="#D"/></mask><path d="M15.498 7.578A555.572 555.572 0 0 0 1.635-3.45c-3.282 21.19 1.09 43.331 13.115 61.973a382.98 382.98 0 0 1 16.187-2.858C20.04 41.587 14.889 24.505 15.497 7.578" fill="#3C0079" mask="url(#E)"/></g><path d="M58.204 276.007c.452.453.891.916 1.339 1.373.728-1.644 1.454-3.29 2.211-4.924-1.634.758-3.279 1.484-4.923 2.212.457.447.92.886 1.373 1.339" fill="#B2AFFF"/><path d="M56.83 274.668a317.79 317.79 0 0 1-32.447 12.288c4.15 3.366 8.17 6.977 12.031 10.84a155.458 155.458 0 0 1 10.84 12.03 317.829 317.829 0 0 1 12.289-32.446c-.447-.457-.885-.92-1.34-1.373-.453-.453-.916-.892-1.373-1.34" fill="#B8B1FF"/><path d="M219.664 111.835c-.73 1.645-1.455 3.289-2.213 4.923a317.875 317.875 0 0 1 4.924-2.211c-.457-.446-.92-.885-1.373-1.34-.453-.452-.891-.915-1.338-1.372" fill="#4232CF"/><path d="M221.002 113.208c.453.453.916.89 1.373 1.34a317.918 317.918 0 0 1 32.447-12.29 155.458 155.458 0 0 1-22.87-22.87 318.21 318.21 0 0 1-12.288 32.447c.447.457.885.92 1.338 1.373" fill="#3E1FBF"/><path d="M268.717 98.184a318.887 318.887 0 0 1 18.914-4.44 128.62 128.62 0 0 1-26.684-20.482 128.633 128.633 0 0 1-20.48-26.682 320.663 320.663 0 0 1-4.441 18.914 467.604 467.604 0 0 1 32.691 32.69" fill="#3900A4"/><path d="M254.822 102.258a318.542 318.542 0 0 1 13.895-4.072 466.818 466.818 0 0 0-32.692-32.692 317.897 317.897 0 0 1-4.074 13.894 155.663 155.663 0 0 0 22.871 22.871" fill="#3B0FB1"/><path d="M260.95 73.262a128.532 128.532 0 0 0 26.68 20.481c2.397-.489 4.798-.949 7.204-1.38a387.019 387.019 0 0 0 4.533-16.56 107.103 107.103 0 0 1-23.287-17.672 107.088 107.088 0 0 1-17.672-23.287 383.37 383.37 0 0 0-16.56 4.531 312.059 312.059 0 0 1-1.38 7.205 128.506 128.506 0 0 0 20.481 26.682" fill="#3A00A1"/><path d="M288.69 45.521a89.483 89.483 0 0 1-11.942-14.788 387.051 387.051 0 0 0-18.342 4.11A107.058 107.058 0 0 0 276.08 58.13a107.005 107.005 0 0 0 23.287 17.673 384.301 384.301 0 0 0 4.11-18.342 89.418 89.418 0 0 1-14.788-11.94" fill="#39009A"/><path d="M303.476 57.46a384.388 384.388 0 0 0 2.857-16.188 75.025 75.025 0 0 1-7.136-6.257 74.494 74.494 0 0 1-6.258-7.14 386.436 386.436 0 0 0-16.192 2.858 89.404 89.404 0 0 0 11.942 14.789 89.514 89.514 0 0 0 14.787 11.939" fill="#3B0091"/><path d="M109.185 279.402a387.032 387.032 0 0 1-22.463-19.904 317.272 317.272 0 0 1-24.969 12.958 313.67 313.67 0 0 0-2.21 4.924c14.798 15.103 26.488 32.111 35.064 50.23a356.943 356.943 0 0 0 3.404-1.668 264.732 264.732 0 0 1 16.05-39.285 219.297 219.297 0 0 0-4.876-7.255" fill="#BBB2FF"/><path d="M47.254 309.827a153.192 153.192 0 0 1 19.076 30.09 380.529 380.529 0 0 0 28.278-12.308c-8.577-18.118-20.266-35.126-35.065-50.23a318.17 318.17 0 0 0-12.29 32.448" fill="#BCB3FF"/><path d="M139.603 221.347a321.277 321.277 0 0 1-11.828 10.028 266.65 266.65 0 0 1 11.828 14.47 266.138 266.138 0 0 1 11.826-14.47 322.053 322.053 0 0 1-11.826-10.028" fill="#8BAFF9"/><path d="M91.107 256.937a222.627 222.627 0 0 1 18.078 22.465 382.041 382.041 0 0 0 6.087 4.878 264.563 264.563 0 0 1 24.331-38.435 267.51 267.51 0 0 0-11.828-14.47 318.1 318.1 0 0 1-36.668 25.562" fill="#A8B3FE"/><path d="M86.722 259.498a386.659 386.659 0 0 0 22.463 19.904 222.766 222.766 0 0 0-18.078-22.465c-1.454.87-2.92 1.717-4.385 2.56" fill="#AEAFFF"/><path d="M166.344 194.607a321.068 321.068 0 0 1 10.027 11.827 266.65 266.65 0 0 1 14.47-11.827 266.65 266.65 0 0 1-14.47-11.827 321.068 321.068 0 0 1-10.027 11.827" fill="#658DEC"/><path d="M139.603 221.347a322.053 322.053 0 0 0 11.826 10.028c3.854-4.392 7.86-8.7 12.051-12.89a267.833 267.833 0 0 1 12.893-12.05 326.14 326.14 0 0 0-10.03-11.828 324.08 324.08 0 0 1-12.967 13.774 324.673 324.673 0 0 1-13.773 12.966" fill="#72A1F2"/><path d="M231.654 169.065a219.883 219.883 0 0 1-7.256-4.876 393.755 393.755 0 0 1 4.88 6.088c.788-.41 1.581-.812 2.376-1.212" fill="#5360DF"/><path d="M176.371 182.78a266.65 266.65 0 0 0 14.471 11.827 264.623 264.623 0 0 1 38.433-24.33 375.426 375.426 0 0 0-4.877-6.088 222.616 222.616 0 0 1-22.465-18.077 318.187 318.187 0 0 1-25.562 36.668" fill="#5665E0"/><path d="M217.451 116.758a317.404 317.404 0 0 1-12.957 24.969 386.701 386.701 0 0 1 19.904 22.463c2.393 1.68 4.813 3.3 7.254 4.876a264.707 264.707 0 0 1 39.285-16.048 381.71 381.71 0 0 0 1.668-3.405c-18.119-8.578-35.127-20.266-50.23-35.065-1.645.727-3.289 1.453-4.924 2.21" fill="#443FD6"/><path d="M224.398 164.19a387.405 387.405 0 0 0-19.904-22.464 310.994 310.994 0 0 1-2.56 4.385 222.488 222.488 0 0 0 22.464 18.078" fill="#484ADA"/><path d="M222.375 114.548c15.104 14.799 32.11 26.487 50.23 35.064a380.936 380.936 0 0 0 12.309-28.277 153.12 153.12 0 0 1-30.09-19.076 317.774 317.774 0 0 0-32.45 12.289" fill="#4338D4"/><path d="M268.717 98.184a462.707 462.707 0 0 1 17.307 20.26 381.43 381.43 0 0 0 7.425-21.54c-1.961-1-3.9-2.054-5.818-3.16a318.887 318.887 0 0 0-18.914 4.44" fill="#412ECC"/><path d="M254.822 102.258a153.268 153.268 0 0 0 30.09 19.077c.375-.963.746-1.926 1.111-2.89a462.658 462.658 0 0 0-17.306-20.26 318.542 318.542 0 0 0-13.895 4.073" fill="#4230CD"/><path d="M151.43 231.376a266.523 266.523 0 0 0-11.826 14.47 264.578 264.578 0 0 1 24.33 38.434 371.2 371.2 0 0 0 6.088-4.878 222.344 222.344 0 0 1 18.076-22.464 318.485 318.485 0 0 1-36.668-25.562" fill="#A8B3FE"/><path d="M139.603 245.845a264.363 264.363 0 0 0-24.33 38.435 383.147 383.147 0 0 0 24.33 17.616 383.147 383.147 0 0 0 24.33-17.616 264.448 264.448 0 0 0-24.33-38.435" fill="#AEB0FF"/><path d="M201.933 243.102a222.477 222.477 0 0 1 22.466-18.077 386.595 386.595 0 0 0 4.877-6.088 264.625 264.625 0 0 1-38.435-24.329 266.138 266.138 0 0 0-14.47 11.826 318.312 318.312 0 0 1 25.562 36.668" fill="#7BA6F6"/><path d="M151.43 231.376a318.485 318.485 0 0 0 36.668 25.562 224.568 224.568 0 0 1 6.758-7.078 221.174 221.174 0 0 1 7.078-6.756 318.438 318.438 0 0 0-25.561-36.67 268.77 268.77 0 0 0-12.892 12.05 270.282 270.282 0 0 0-12.051 12.892" fill="#87ADF9"/><path d="M229.275 170.277a381.449 381.449 0 0 1 17.615 24.33 378.85 378.85 0 0 0 7.97-12.487 220.081 220.081 0 0 1-23.208-13.055c-.793.4-1.586.803-2.377 1.212" fill="#617BE5"/><path d="M190.842 194.607a264.385 264.385 0 0 0 38.434 24.33 382.769 382.769 0 0 0 17.617-24.33 383.054 383.054 0 0 0-17.617-24.33 264.3 264.3 0 0 0-38.434 24.33" fill="#658BEC"/><path d="M254.86 182.12a380.066 380.066 0 0 0 16.077-29.103 264.66 264.66 0 0 0-39.283 16.048 219.853 219.853 0 0 0 23.205 13.055" fill="#5564DF"/><path d="M170.021 279.402a387.362 387.362 0 0 0 22.463-19.904 310.994 310.994 0 0 1-4.385-2.56 222.21 222.21 0 0 0-18.078 22.464" fill="#AEAEFF"/><path d="M204.494 247.488a387.362 387.362 0 0 0 19.904-22.463 222.488 222.488 0 0 0-22.465 18.078c.87 1.455 1.717 2.919 2.561 4.385" fill="#8CB0FA"/><path d="M194.855 249.86a229.064 229.064 0 0 0-6.758 7.076c1.455.87 2.92 1.72 4.387 2.563a389.857 389.857 0 0 0 6.074-5.937 381.05 381.05 0 0 0 5.936-6.074 311.097 311.097 0 0 0-2.56-4.386 225.716 225.716 0 0 0-7.079 6.758" fill="#A2B4FD"/><path d="M2.827 237.869a177.74 177.74 0 0 1 3.774 1.733 411.36 411.36 0 0 1 1.666-3.404 262.2 262.2 0 0 1-5.44 1.67" fill="#90B1FA"/><path d="M6.601 239.602a185.903 185.903 0 0 0-3.775-1.734 266.17 266.17 0 0 1-29.196 6.816 459.003 459.003 0 0 0 15.297 20.728c1.802.783 3.588 1.613 5.366 2.468a380.11 380.11 0 0 1 12.308-28.278" fill="#9EB4FD"/><path d="M182.865 57.83a268.462 268.462 0 0 1-1.672 5.44 395.653 395.653 0 0 1 3.404-1.664 177.776 177.776 0 0 1-1.732-3.775" fill="#38009E"/><path d="M189.68 28.634a458.265 458.265 0 0 1 20.729 15.297c-9.772-22.486-13.913-46.827-12.446-70.889-1.465.518-2.928 1.04-4.387 1.574a267.612 267.612 0 0 1-3.896 54.018" fill="#3C007A"/><path d="M184.598 61.605a380.798 380.798 0 0 1 28.279-12.309 153.256 153.256 0 0 1-2.469-5.365 459.03 459.03 0 0 0-20.728-15.297 266.568 266.568 0 0 1-6.815 29.196 180.52 180.52 0 0 0 1.733 3.775" fill="#3B008F"/><g transform="translate(197 -27.79)"><mask id="G" fill="#fff"><use xlink:href="#F"/></mask><path d="M13.408 71.721a445.63 445.63 0 0 1 5.357 4.255 382.29 382.29 0 0 1 21.543-7.425C28.215 44.822 23.976 18.123 27.601-7.688A459.042 459.042 0 0 0 .963.832c-1.467 24.062 2.674 48.403 12.445 70.89" fill="#3B007E" mask="url(#G)"/></g><path d="M215.765 48.186a445.63 445.63 0 0 0-5.356-4.255 148.87 148.87 0 0 0 2.468 5.365c.96-.373 1.923-.746 2.888-1.11" fill="#3B0092"/><g transform="translate(223 -27.79)"><mask id="I" fill="#fff"><use xlink:href="#H"/></mask><path d="M14.309 68.551a350.07 350.07 0 0 1 4.54-1.386 321.206 321.206 0 0 0 4.535-38.209 107.61 107.61 0 0 1 0-37.383c-.093-1.62-.184-3.238-.305-4.857A458.401 458.401 0 0 0 1.602-7.687c-3.623 25.811.613 52.51 12.707 76.238" fill="#3B007E" mask="url(#I)"/></g><g transform="translate(244 -27.79)"><mask id="K" fill="#fff"><use xlink:href="#J"/></mask><path d="M2.385-8.426a107.562 107.562 0 0 0 0 37.383c.725-12.45.725-24.933 0-37.383" fill="#3B0074" mask="url(#K)"/></g><path d="M10.49 291.029A463.397 463.397 0 0 1-6.818 270.77a381.145 381.145 0 0 0-7.424 21.541c1.961 1 3.9 2.053 5.818 3.159a318.295 318.295 0 0 0 18.914-4.441" fill="#A7B3FE"/><path d="M47.553 220.15a220.906 220.906 0 0 1 7.255 4.875 387.812 387.812 0 0 1-4.878-6.088c-.79.41-1.583.812-2.377 1.212" fill="#6B93D3"/><path d="M61.754 272.456a317.077 317.077 0 0 1 12.958-24.968 386.97 386.97 0 0 1-19.903-22.463c-2.393-1.68-4.814-3.3-7.256-4.876a264.57 264.57 0 0 1-39.284 16.049 356.453 356.453 0 0 0-1.667 3.404c18.117 8.578 35.125 20.266 50.229 35.065 1.644-.727 3.289-1.453 4.923-2.211" fill="#9EB3FD"/><path d="M56.83 274.668c-15.103-14.8-32.11-26.488-50.229-35.065A380.165 380.165 0 0 0-5.707 267.88a153.128 153.128 0 0 1 30.09 19.075 317.79 317.79 0 0 0 32.447-12.288" fill="#A5B6FE"/><path d="M24.383 286.956a153.162 153.162 0 0 0-30.09-19.076c-.374.963-.745 1.925-1.11 2.89a463.371 463.371 0 0 0 17.307 20.259 317.644 317.644 0 0 0 13.893-4.073" fill="#A8B3FE"/><path d="M112.863 194.607a322.112 322.112 0 0 1-10.029-11.827 266.996 266.996 0 0 1-14.469 11.827 266.996 266.996 0 0 1 14.47 11.827 322.112 322.112 0 0 1 10.028-11.827" fill="#658DEC"/><path d="M102.834 206.434a266.996 266.996 0 0 0-14.47-11.827 264.641 264.641 0 0 1-38.434 24.33 372.323 372.323 0 0 0 4.879 6.088 222.493 222.493 0 0 1 22.464 18.077 318.427 318.427 0 0 1 25.56-36.668" fill="#7AA7F6"/><path d="M54.809 225.025a387.343 387.343 0 0 0 19.903 22.463c.844-1.466 1.693-2.93 2.562-4.385a222.488 222.488 0 0 0-22.465-18.078" fill="#8BB1FA"/><path d="M139.603 167.868a321.1 321.1 0 0 1 11.826-10.03 266.889 266.889 0 0 1-11.826-14.468 267.403 267.403 0 0 1-11.828 14.469 319.502 319.502 0 0 1 11.828 10.029" fill="#4748DA"/><path d="M139.603 167.868a319.502 319.502 0 0 0-11.828-10.03 271.212 271.212 0 0 1-12.049 12.892 268.78 268.78 0 0 1-12.893 12.05 323.132 323.132 0 0 0 10.03 11.827 323.376 323.376 0 0 1 12.966-13.774 323.425 323.425 0 0 1 13.774-12.965" fill="#5E74E3"/><path d="M165.144 102.557c-.4.793-.8 1.586-1.21 2.377a387.742 387.742 0 0 1 6.087 4.877 220.898 220.898 0 0 1-4.877-7.254" fill="#412DCA"/><path d="M188.1 132.277a222.6 222.6 0 0 1-18.078-22.465 397.31 397.31 0 0 0-6.088-4.878 264.572 264.572 0 0 1-24.332 38.436 268.337 268.337 0 0 0 11.827 14.47 318.085 318.085 0 0 1 36.67-25.563" fill="#443AD4"/><path d="M170.021 109.812a387.717 387.717 0 0 1 22.463 19.903 317.209 317.209 0 0 1 24.967-12.957c.758-1.634 1.484-3.279 2.211-4.924-14.799-15.103-26.487-32.11-35.065-50.229a356.453 356.453 0 0 0-3.404 1.667 264.517 264.517 0 0 1-16.049 39.285 219.874 219.874 0 0 0 4.877 7.255" fill="#3D19BA"/><path d="M192.484 129.716a387.343 387.343 0 0 0-22.463-19.903 222.434 222.434 0 0 0 18.078 22.465 311.06 311.06 0 0 1 4.385-2.562" fill="#4334D1"/><path d="M231.951 79.387a153.216 153.216 0 0 1-19.076-30.09 381.378 381.378 0 0 0-28.278 12.308c8.579 18.118 20.268 35.126 35.065 50.23a317.27 317.27 0 0 0 12.289-32.448" fill="#3B12B4"/><path d="M240.467 46.58a127.611 127.611 0 0 1-3.16-5.82 381.157 381.157 0 0 0-21.541 7.426 462.171 462.171 0 0 1 20.26 17.309 320.694 320.694 0 0 0 4.44-18.915" fill="#3A0099"/><path d="M231.951 79.387a317.086 317.086 0 0 0 4.074-13.893 462.146 462.146 0 0 0-20.26-17.308c-.964.364-1.927.737-2.89 1.11a153.216 153.216 0 0 0 19.076 30.091" fill="#3800A1"/><path d="M241.85 39.376a350.07 350.07 0 0 0-4.542 1.386c.999 1.96 2.052 3.9 3.159 5.819.487-2.398.948-4.8 1.382-7.205" fill="#3B008E"/><path d="M74.712 247.488a317.077 317.077 0 0 0-12.958 24.968 317.272 317.272 0 0 0 24.969-12.958 385.465 385.465 0 0 1-6.076-5.935 394.345 394.345 0 0 1-5.935-6.075" fill="#A9B5FE"/><path d="M112.863 194.607a322.112 322.112 0 0 0-10.029 11.827 270.258 270.258 0 0 1 12.892 12.05 269.78 269.78 0 0 1 12.05 12.892 323.102 323.102 0 0 0 11.827-10.029 324.68 324.68 0 0 1-13.775-12.966 325.314 325.314 0 0 1-12.965-13.774" fill="#73A0F2"/><path d="M102.834 206.434a318.427 318.427 0 0 0-25.561 36.668 223.402 223.402 0 0 1 7.077 6.758 222.293 222.293 0 0 1 6.757 7.077 318.187 318.187 0 0 0 36.668-25.562 270.192 270.192 0 0 0-12.048-12.89 269.766 269.766 0 0 0-12.893-12.05" fill="#87ADF9"/><path d="M84.35 249.86a227.822 227.822 0 0 0-7.076-6.757 311.126 311.126 0 0 0-2.564 4.385 399.171 399.171 0 0 0 5.938 6.075 389.948 389.948 0 0 0 6.075 5.936c1.466-.844 2.93-1.693 4.384-2.562a225.599 225.599 0 0 0-6.756-7.077" fill="#A1B4FD"/><path d="M151.43 157.839a322.053 322.053 0 0 0-11.826 10.028 324.635 324.635 0 0 1 13.773 12.966 324.744 324.744 0 0 1 12.967 13.775 325.13 325.13 0 0 0 10.029-11.828 268.77 268.77 0 0 1-12.892-12.05 269.802 269.802 0 0 1-12.051-12.891" fill="#5D73E3"/><path d="M139.603 167.868a323.425 323.425 0 0 0-13.774 12.965c-4.49 4.49-8.8 9.09-12.966 13.774a323.399 323.399 0 0 0 12.966 13.775c4.49 4.49 9.09 8.799 13.774 12.965a323.365 323.365 0 0 0 13.773-12.965 324.706 324.706 0 0 0 12.967-13.775 324.684 324.684 0 0 0-12.967-13.774 324.005 324.005 0 0 0-13.773-12.965" fill="#668CEC"/><path d="M163.48 170.731a270.249 270.249 0 0 0 12.891 12.05 318.398 318.398 0 0 0 25.562-36.669 224.568 224.568 0 0 1-7.078-6.758 225.481 225.481 0 0 1-6.756-7.076 318.191 318.191 0 0 0-36.67 25.56 269.789 269.789 0 0 0 12.051 12.893" fill="#4C53DC"/><path d="M198.558 135.651a394.311 394.311 0 0 1 5.937 6.075 316.728 316.728 0 0 0 12.957-24.968 316.545 316.545 0 0 0-24.967 12.958 394.285 394.285 0 0 1 6.073 5.935" fill="#433AD4"/><path d="M192.484 129.716a311.06 311.06 0 0 0-4.385 2.562 227.816 227.816 0 0 0 6.756 7.078 226.805 226.805 0 0 0 7.078 6.756 322.772 322.772 0 0 0 2.561-4.385 385.376 385.376 0 0 0-5.936-6.075 389.786 389.786 0 0 0-6.074-5.936" fill="#443FD6"/><path d="M32.314 194.607a382.155 382.155 0 0 1-7.968-12.487A220.622 220.622 0 0 1-7.45 194.607a220.622 220.622 0 0 1 31.797 12.487 382.155 382.155 0 0 1 7.968-12.487" fill="#648CEC"/><path d="M8.268 236.198a380.287 380.287 0 0 1 16.08-29.104 220.858 220.858 0 0 0-31.8-12.488 222.27 222.27 0 0 1-44.486 8.772 457.35 457.35 0 0 0 12.527 21.464 184.399 184.399 0 0 1 42.238 13.027c1.82-.535 3.63-1.096 5.441-1.671" fill="#79A6F4"/><path d="M-39.41 224.843a458.652 458.652 0 0 0 13.04 19.841 266.594 266.594 0 0 0 29.197-6.815 184.34 184.34 0 0 0-42.237-13.026" fill="#8CB0FA"/><path d="M47.553 169.065c.793.4 1.587.802 2.377 1.212a382.111 382.111 0 0 1 4.878-6.088 220.906 220.906 0 0 1-7.255 4.876" fill="#5462DF"/><path d="M47.553 169.065a220.168 220.168 0 0 1-23.206 13.055 380.48 380.48 0 0 0 7.968 12.487 382.233 382.233 0 0 1 17.615-24.33c-.79-.41-1.584-.812-2.377-1.212" fill="#617CE6"/><path d="M114.06 102.557a220.835 220.835 0 0 1-4.875 7.254 387.742 387.742 0 0 1 6.088-4.877 265.96 265.96 0 0 1-1.213-2.377" fill="#412DCA"/><path d="M139.603 87.32a382.144 382.144 0 0 1 12.486-7.97 220.733 220.733 0 0 1-12.486-31.797 220.738 220.738 0 0 1-12.487 31.797 383.263 383.263 0 0 1 12.487 7.97" fill="#39009F"/><path d="M115.273 104.934a381.166 381.166 0 0 1 24.33-17.615 382.227 382.227 0 0 0-12.488-7.969 220.081 220.081 0 0 1-13.055 23.207c.401.793.803 1.586 1.213 2.377" fill="#3D1DBD"/><path d="M169.838 15.594a185.868 185.868 0 0 1-2.953-30.263 457.411 457.411 0 0 0-17.836 8.28 224.831 224.831 0 0 1-.676 9.455 456.89 456.89 0 0 1 21.465 12.528" fill="#3C0078"/><path d="M181.193 63.272c.576-1.81 1.137-3.622 1.672-5.44a184.342 184.342 0 0 1-13.027-42.238 456.526 456.526 0 0 0-21.465-12.528 222.31 222.31 0 0 1-8.77 44.486 220.75 220.75 0 0 0 12.486 31.798 380.618 380.618 0 0 1 29.104-16.078" fill="#3B008D"/><path d="M189.68 28.634a267.612 267.612 0 0 0 3.896-54.018 457.195 457.195 0 0 0-26.691 10.715 185.879 185.879 0 0 0 2.953 30.263 456.498 456.498 0 0 1 19.842 13.04" fill="#3C0079"/><path d="M189.68 28.634a456.498 456.498 0 0 0-19.842-13.04 184.264 184.264 0 0 0 13.028 42.235 266.497 266.497 0 0 0 6.814-29.195" fill="#3B008C"/><path d="M49.93 218.937a382.233 382.233 0 0 1-17.615-24.33 382.186 382.186 0 0 0-7.97 12.487 220.081 220.081 0 0 1 23.208 13.055c.793-.4 1.588-.803 2.377-1.212" fill="#6C9CF0"/><path d="M24.346 207.095a379.896 379.896 0 0 0-16.078 29.103 264.645 264.645 0 0 0 39.285-16.048 219.981 219.981 0 0 0-23.207-13.055" fill="#7DAAF7"/><path d="M77.273 146.112a222.766 222.766 0 0 1-22.465 18.078 387.738 387.738 0 0 0-4.879 6.086 264.743 264.743 0 0 1 38.436 24.331 266.996 266.996 0 0 0 14.47-11.827 318.39 318.39 0 0 1-25.562-36.668" fill="#5665E0"/><path d="M88.365 194.607a264.426 264.426 0 0 0-38.436-24.33 383.021 383.021 0 0 0-17.615 24.33 382.736 382.736 0 0 0 17.615 24.33 264.512 264.512 0 0 0 38.436-24.33" fill="#658BEC"/><path d="M127.775 157.839a267.403 267.403 0 0 0 11.828-14.47 264.556 264.556 0 0 1-24.33-38.434 376.576 376.576 0 0 0-6.088 4.878 222.643 222.643 0 0 1-18.078 22.464 318.138 318.138 0 0 1 36.668 25.562" fill="#433AD4"/><path d="M127.775 157.839a318.138 318.138 0 0 0-36.668-25.562 225.593 225.593 0 0 1-6.756 7.078 225.593 225.593 0 0 1-7.078 6.756 318.151 318.151 0 0 0 25.561 36.669 269.722 269.722 0 0 0 12.892-12.05 269.756 269.756 0 0 0 12.05-12.891" fill="#4C53DC"/><path d="M165.144 102.557A219.981 219.981 0 0 1 152.09 79.35a380.469 380.469 0 0 0-12.486 7.97 382.125 382.125 0 0 1 24.33 17.614c.41-.79.811-1.584 1.211-2.377" fill="#3D1DBD"/><path d="M139.603 143.37a264.512 264.512 0 0 0 24.33-38.436 381.949 381.949 0 0 0-24.33-17.615 381.949 381.949 0 0 0-24.33 17.615 264.426 264.426 0 0 0 24.33 38.436" fill="#4233D0"/><path d="M181.193 63.272A380.618 380.618 0 0 0 152.09 79.35a220.278 220.278 0 0 0 13.057 23.207 264.507 264.507 0 0 0 16.047-39.285" fill="#3B12B4"/><path d="M130.833 3.066c-.292-3.148-.52-6.3-.677-9.455a454.694 454.694 0 0 0-17.836-8.28 185.325 185.325 0 0 1-2.953 30.263 457.579 457.579 0 0 1 21.466-12.528" fill="#3C0078"/><path d="M139.603-1.615a459.002 459.002 0 0 0-9.446-4.774c.157 3.155.383 6.308.675 9.455a458.754 458.754 0 0 1 8.771-4.681" fill="#3C0077"/><path d="M2.827 151.345c1.818.535 3.632 1.097 5.44 1.671a411.36 411.36 0 0 1-1.666-3.404c-1.253.593-2.511 1.17-3.774 1.733" fill="#4545D9"/><path d="M8.268 153.016a270.496 270.496 0 0 0-5.44-1.67 184.414 184.414 0 0 1-42.239 13.026 457.35 457.35 0 0 0-12.527 21.464 222.338 222.338 0 0 1 44.486 8.771 220.622 220.622 0 0 0 31.797-12.487 380.95 380.95 0 0 1-16.077-29.104" fill="#5869E1"/><path d="M58.204 113.208c-.453.453-.916.89-1.373 1.34 1.644.727 3.289 1.453 4.923 2.21-.757-1.634-1.483-3.28-2.211-4.923-.448.457-.887.92-1.339 1.373" fill="#4232CF"/><path d="M54.809 164.19a387.343 387.343 0 0 1 19.903-22.464 317.077 317.077 0 0 1-12.959-24.968c-1.633-.757-3.278-1.484-4.922-2.21-15.105 14.797-32.112 26.488-50.23 35.064a369.041 369.041 0 0 0 1.668 3.404 264.633 264.633 0 0 1 39.284 16.05 218.32 218.32 0 0 0 7.256-4.877" fill="#443FD6"/><path d="M8.268 153.016a380.95 380.95 0 0 0 16.077 29.104 220.26 220.26 0 0 0 23.207-13.055 264.526 264.526 0 0 0-39.284-16.049" fill="#5564DF"/><path d="M96.342 57.83a177.856 177.856 0 0 1-1.734 3.776c1.136.549 2.273 1.104 3.405 1.665a262.2 262.2 0 0 1-1.671-5.44" fill="#38009E"/><path d="M61.754 116.758a317.599 317.599 0 0 1 24.969 12.958 386.682 386.682 0 0 1 22.463-19.904c1.68-2.391 3.3-4.813 4.875-7.254a264.732 264.732 0 0 1-16.05-39.285 369.041 369.041 0 0 0-3.403-1.667c-8.577 18.117-20.266 35.126-35.065 50.229a308.66 308.66 0 0 0 2.21 4.924" fill="#3D19BA"/><path d="M86.722 129.716a317.599 317.599 0 0 0-24.968-12.957 317.077 317.077 0 0 0 12.958 24.968 394.345 394.345 0 0 1 5.934-6.075 389.902 389.902 0 0 1 6.076-5.936" fill="#443AD4"/><path d="M98.013 63.272a380.962 380.962 0 0 1 29.104 16.078 220.75 220.75 0 0 0 12.487-31.798 222.312 222.312 0 0 1-8.772-44.486 456.975 456.975 0 0 0-21.463 12.528 184.479 184.479 0 0 1-13.027 42.238 267.932 267.932 0 0 0 1.67 5.44" fill="#3B008E"/><path d="M127.116 79.35a379.542 379.542 0 0 0-29.104-16.077 264.66 264.66 0 0 0 16.048 39.283 219.976 219.976 0 0 0 13.056-23.206" fill="#3B13B5"/><path d="M149.049-6.389a456.396 456.396 0 0 0-9.445 4.774 458.977 458.977 0 0 1 8.769 4.681c.29-3.147.518-6.3.676-9.455" fill="#3C0077"/><path d="M139.603 47.553a222.261 222.261 0 0 0 8.77-44.487 453.11 453.11 0 0 0-8.77-4.68 453.188 453.188 0 0 0-8.77 4.68 222.193 222.193 0 0 0 8.77 44.487" fill="#3B0085"/><path d="M74.712 141.726a386.64 386.64 0 0 0-19.903 22.463 222.711 222.711 0 0 0 22.465-18.078 316.843 316.843 0 0 1-2.562-4.385" fill="#484ADA"/><path d="M109.185 109.812a387.717 387.717 0 0 0-22.463 19.903c1.466.845 2.93 1.693 4.385 2.562a222.85 222.85 0 0 0 18.078-22.465" fill="#4334D1"/><path d="M84.35 139.354a226.675 226.675 0 0 0 6.757-7.076 297.952 297.952 0 0 0-4.385-2.563 394.523 394.523 0 0 0-6.074 5.936 399.232 399.232 0 0 0-5.938 6.076c.846 1.465 1.694 2.93 2.564 4.385a229.04 229.04 0 0 0 7.077-6.758" fill="#443ED6"/><path d="M68.799 43.931a458.976 458.976 0 0 1 20.727-15.297 267.611 267.611 0 0 1-3.895-54.018 450.688 450.688 0 0 0-4.388-1.574c1.468 24.062-2.673 48.403-12.444 70.89" fill="#3C007A"/><path d="M89.525 28.634a457.718 457.718 0 0 1 19.842-13.04 185.77 185.77 0 0 0 2.955-30.263A456.942 456.942 0 0 0 85.63-25.384c-.53 18.063.77 36.168 3.895 54.018" fill="#3C0079"/><path d="M6.601 149.612a380.27 380.27 0 0 1-12.308-28.277 152.269 152.269 0 0 1-5.366 2.466A459.596 459.596 0 0 0-26.37 144.53a266.17 266.17 0 0 1 29.196 6.816 180.6 180.6 0 0 0 3.775-1.734" fill="#433CD5"/><path d="M-26.37 144.53a456.79 456.79 0 0 0-13.04 19.842 184.373 184.373 0 0 0 42.236-13.026 266.1 266.1 0 0 0-29.195-6.816" fill="#4748DA"/><path d="M59.543 111.835a317.668 317.668 0 0 1-12.29-32.448A155.675 155.675 0 0 1 36.416 91.42a156.054 156.054 0 0 1-12.032 10.839 317.838 317.838 0 0 1 32.448 12.288c.457-.446.92-.885 1.373-1.34.452-.452.89-.915 1.339-1.372" fill="#3E1FBF"/><path d="M24.383 102.258a153.162 153.162 0 0 1-30.09 19.077 380.54 380.54 0 0 0 12.309 28.278c18.117-8.577 35.125-20.267 50.229-35.065a317.522 317.522 0 0 0-32.448-12.29" fill="#4338D4"/><path d="M94.607 61.605a180.6 180.6 0 0 0 1.734-3.775 266.347 266.347 0 0 1-6.816-29.196 460.136 460.136 0 0 0-20.728 15.297 151.419 151.419 0 0 1-2.467 5.365 380.936 380.936 0 0 1 28.277 12.31" fill="#3B008F"/><path d="M59.543 111.835C74.342 96.73 86.03 79.724 94.607 61.605A380.335 380.335 0 0 0 66.33 49.298a153.162 153.162 0 0 1-19.076 30.09 317.668 317.668 0 0 0 12.289 32.448" fill="#3B12B4"/><path d="M109.368 15.594a458.682 458.682 0 0 0-19.843 13.04 266.315 266.315 0 0 0 6.817 29.197 184.388 184.388 0 0 0 13.026-42.237" fill="#3B008C"/><path d="M43.181 65.495a317.545 317.545 0 0 1-4.44-18.915 128.62 128.62 0 0 1-20.484 26.683 128.612 128.612 0 0 1-26.68 20.482 318.47 318.47 0 0 1 18.913 4.44 464.987 464.987 0 0 1 32.691-32.69" fill="#3900A4"/><path d="M-8.423 93.744a129.152 129.152 0 0 1-5.82 3.159 381.678 381.678 0 0 0 7.425 21.54 462.146 462.146 0 0 1 17.308-20.26 320.622 320.622 0 0 0-18.913-4.44" fill="#412ECC"/><g transform="translate(41 -27.79)"><mask id="M" fill="#fff"><use xlink:href="#L"/></mask><path d="M.898 68.551a380.915 380.915 0 0 1 21.542 7.425 437.945 437.945 0 0 1 5.358-4.255C37.57 49.235 41.711 24.895 40.244.831a460.605 460.605 0 0 0-26.64-8.519c3.624 25.812-.614 52.51-12.706 76.24" fill="#3B007E" mask="url(#M)"/></g><path d="M43.181 65.495a462.71 462.71 0 0 1 20.259-17.31 380.872 380.872 0 0 0-21.541-7.423c-1 1.96-2.053 3.9-3.159 5.818a317.545 317.545 0 0 0 4.441 18.915" fill="#3A0099"/><path d="M47.254 79.387a319.844 319.844 0 0 1-4.072-13.893A465.018 465.018 0 0 0 10.49 98.185a317.072 317.072 0 0 1 13.893 4.073c4.15-3.366 8.17-6.977 12.033-10.84a156.047 156.047 0 0 0 10.838-12.03" fill="#3B0FB1"/><path d="M10.49 98.185a463.397 463.397 0 0 0-17.308 20.26c.366.964.738 1.927 1.112 2.89a153.26 153.26 0 0 0 30.09-19.077 317.478 317.478 0 0 0-13.894-4.073" fill="#4130CD"/><path d="M66.33 49.297a153.28 153.28 0 0 0 2.469-5.365 445.818 445.818 0 0 0-5.359 4.255c.965.366 1.927.737 2.89 1.11" fill="#3B0091"/><path d="M47.254 79.387a153.17 153.17 0 0 0 19.076-30.09c-.963-.374-1.925-.747-2.89-1.11a461.537 461.537 0 0 0-20.258 17.307 319.844 319.844 0 0 0 4.072 13.893" fill="#3800A2"/><path d="M37.357 39.376a321.025 321.025 0 0 1-4.536-38.21 106.539 106.539 0 0 1-12.023 33.679 381.848 381.848 0 0 1 16.56 4.53" fill="#3B007E"/><path d="M18.258 73.262A128.575 128.575 0 0 0 38.74 46.58a317.52 317.52 0 0 1-1.382-7.205 383.679 383.679 0 0 0-16.56-4.53A107.12 107.12 0 0 1 3.128 58.13 107.127 107.127 0 0 1-20.16 75.803a385.541 385.541 0 0 0 4.532 16.56c2.407.431 4.807.891 7.205 1.38a128.538 128.538 0 0 0 26.68-20.48" fill="#3A00A1"/><g transform="translate(32 -27.79)"><mask id="O" fill="#fff"><use xlink:href="#N"/></mask><path d="M.822-8.426a107.66 107.66 0 0 1 0 37.383 320.404 320.404 0 0 0 4.535 38.209c1.516.452 3.03.914 4.541 1.386 12.092-23.73 16.33-50.428 12.705-76.24a459.914 459.914 0 0 0-21.478-5.596c-.118 1.619-.209 3.238-.303 4.858" fill="#3B007E" mask="url(#O)"/></g><path d="M41.898 40.761a370.21 370.21 0 0 0-4.54-1.386c.433 2.407.894 4.807 1.381 7.205a128.662 128.662 0 0 0 3.16-5.819" fill="#3B008F"/><g transform="translate(2 -27.79)"><mask id="Q" fill="#fff"><use xlink:href="#P"/></mask><path d="M.457 58.523a386.496 386.496 0 0 1 18.342 4.11 106.49 106.49 0 0 0 12.02-33.676 321.534 321.534 0 0 1 .003-37.383 108.115 108.115 0 0 0-1.047-5.179c-.654-.15-1.31-.295-1.964-.444a555.492 555.492 0 0 0-14.241 10.6C16.852 17.738 12.48 39.88.457 58.522" fill="#3C007A" mask="url(#Q)"/></g><path d="M-9.483 45.521a89.425 89.425 0 0 1-14.787 11.94 384.311 384.311 0 0 0 4.11 18.342A107.053 107.053 0 0 0 3.126 58.13 107.016 107.016 0 0 0 20.8 34.843a386.733 386.733 0 0 0-18.342-4.11 89.425 89.425 0 0 1-11.94 14.788" fill="#39009A"/><g transform="translate(32 -27.79)"><mask id="S" fill="#fff"><use xlink:href="#R"/></mask><path d="M.822 28.956a107.66 107.66 0 0 0 0-37.383 321.092 321.092 0 0 0 0 37.383" fill="#3B0074" mask="url(#S)"/></g><g transform="translate(-14 -27.79)"><mask id="U" fill="#fff"><use xlink:href="#T"/></mask><path d="M.268 55.666c5.412.835 10.81 1.79 16.189 2.857C28.48 39.882 32.852 17.74 29.57-3.45A557.415 557.415 0 0 0 15.707 7.579c.61 16.926-4.54 34.009-15.44 48.087" fill="#3C0079" mask="url(#U)"/></g><path d="M2.457 30.733a384.904 384.904 0 0 0-16.188-2.856 75.284 75.284 0 0 1-6.258 7.136 74.494 74.494 0 0 1-7.14 6.258 384.443 384.443 0 0 0 2.859 16.19 89.466 89.466 0 0 0 14.788-11.94A89.48 89.48 0 0 0 2.457 30.733" fill="#3B0091"/><path d="M-28.408 25.901a384.79 384.79 0 0 1 14.676 1.976C-2.833 13.796 2.317-3.285 1.708-20.212A555.833 555.833 0 0 0-11.168-9.297 61.626 61.626 0 0 1-28.41 25.9" fill="#3C0079"/><path fill="url(#V)" fill-rule="nonzero" style="mix-blend-mode:color" d="M2 0h448.94v437H2z" transform="translate(-86 -28)"/></g></g><path d="M169.59 173.48h-11.002c-.512-.004-1.022-.293-1.257-.752l-18.658-33.315a1.457 1.457 0 0 1-.168-.53 1.44 1.44 0 0 1-.181.53l-18.695 33.315a1.423 1.423 0 0 1-1.193.751h-11.03c-1.007.023-1.749-1.27-1.243-2.14l18.234-32.593-18.234-32.634c-.44-.784.084-1.933.982-2.106.082-.008.18-.008.26 0h11.03c.483.01.952.303 1.194.711l18.695 33.305c.091.175.153.367.18.547.02-.18.087-.372.169-.547l18.658-33.305c.24-.427.745-.711 1.257-.711h11.003c.976.01 1.711 1.247 1.244 2.106l-18.226 32.634 18.226 32.594c.51.87-.236 2.162-1.244 2.14z" fill="#FFF"/><g fill="#FEFEFE"><path d="M57.502 122.927l-.479 3.71-4.832 1.808c-.179.068-.501.122-.966.161l-.004.038c.207.073.515.221.927.445l4.174 2.981-.482 3.73-6.373-5.324L42 133.628l.492-3.807 4.42-1.447c.35-.113.758-.2 1.227-.265l.004-.039c-.26-.113-.645-.31-1.155-.593l-3.84-2.74.45-3.487 6.348 5.053 7.556-3.376zM55.423 110.694l-4.941-.044a6.186 6.186 0 0 1-1.271-.17l-.023.072c.379.16.74.365 1.082.614l4.03 2.932 1.123-3.404zm6.872-3.165l-1.076 3.265-3.27-.029-1.558 4.731 2.65 1.911-1.07 3.247-11.705-9.223 1.17-3.552 14.859-.35zM72.03 90.387l-1.614 2.665-7.168-4.339a42.328 42.328 0 0 1-2.504-1.653l-.04.067c.651.585 1.103 1.03 1.36 1.337l6.445 7.737-1.334 2.206-9.792-2.023c-.264-.054-.897-.266-1.899-.635l-.045.075a60.559 60.559 0 0 1 3.174 1.772l6.625 4.011-1.473 2.431-11.979-7.252 2.391-3.952 8.584 1.851c.686.15 1.342.353 1.97.611l.03-.05a19.955 19.955 0 0 1-1.44-1.524l-5.603-6.736 2.332-3.85 11.98 7.251zM76.49 77.415l-4.404-2.243a6.096 6.096 0 0 1-1.06-.72l-.056.056c.268.312.5.656.696 1.032l2.302 4.422 2.521-2.548zm7.561.23l-2.418 2.444-2.915-1.484-3.503 3.538 1.52 2.895-2.405 2.427-6.365-13.474 2.63-2.659 13.456 6.313zM82.932 63.852l2.247 3.183 1.117-.788c.554-.391.885-.864.995-1.42a1.959 1.959 0 0 0-.34-1.565c-.706-1-1.657-1.077-2.854-.233l-1.165.823zm13.734 4.555l-2.961 2.088-3.857-1.688c-.29-.13-.56-.239-.805-.328a4.022 4.022 0 0 0-.69-.19 1.806 1.806 0 0 0-.593-.01 1.2 1.2 0 0 0-.512.212l-.695.49 3.092 4.38-2.577 1.82-8.075-11.442 4.085-2.883c2.776-1.96 4.897-1.903 6.36.172.283.4.48.81.598 1.235.115.423.158.85.125 1.28a4.028 4.028 0 0 1-.314 1.272 5.047 5.047 0 0 1-.731 1.21l.023.031c.207-.066.434-.096.678-.09.244.008.496.038.758.093.26.055.525.125.79.213s.515.18.75.277l4.55 1.857zM102.766 65.45l-2.813 1.425-6.328-12.493 2.815-1.425zM119.629 59.242l-3.033.963-8.164-6.64c-.48-.386-.821-.684-1.024-.893l-.037.01c.199.457.454 1.169.762 2.137l2.328 7.334-2.838.902-4.24-13.347 3.24-1.03 7.876 6.445c.359.29.696.582 1.017.876l.037-.012c-.15-.293-.367-.897-.658-1.81l-2.344-7.38 2.84-.902 4.238 13.347zM142.818 56.686c-1.014.511-2.346.78-3.992.806-2.149.035-3.848-.57-5.098-1.813-1.25-1.243-1.892-2.916-1.926-5.019-.035-2.24.626-4.066 1.987-5.481 1.361-1.415 3.146-2.14 5.352-2.177 1.367-.022 2.523.133 3.464.463l.05 3.036c-.946-.544-2.019-.807-3.216-.788-1.316.021-2.37.452-3.164 1.291-.793.84-1.18 1.966-1.156 3.378.021 1.355.42 2.427 1.193 3.22.776.791 1.807 1.176 3.095 1.156a6.579 6.579 0 0 0 3.365-.952l.046 2.88zM155.763 58.882l-8.306-1.25 2.086-13.848 7.986 1.202-.382 2.54-4.867-.732-.464 3.08 4.529.682-.381 2.53-4.528-.683-.48 3.168 5.188.781zM166.728 49.826l-1.223 3.7 1.3.428c.642.212 1.22.198 1.732-.045a1.952 1.952 0 0 0 1.055-1.204c.384-1.162-.119-1.973-1.51-2.432l-1.354-.447zm4.51 13.748l-3.44-1.136-.937-4.104c-.07-.311-.142-.592-.216-.843a3.923 3.923 0 0 0-.259-.666 1.8 1.8 0 0 0-.343-.484 1.212 1.212 0 0 0-.476-.286l-.808-.267-1.68 5.092-2.996-.99 4.392-13.297 4.747 1.567c3.228 1.066 4.443 2.805 3.647 5.216a3.995 3.995 0 0 1-.638 1.214 3.772 3.772 0 0 1-.953.862 4.028 4.028 0 0 1-1.211.505 5.127 5.127 0 0 1-1.406.133l-.012.036c.177.128.336.29.475.492.139.2.265.422.376.664.113.243.213.497.299.762.088.266.162.52.225.768l1.214 4.762zM188.077 59.56l-3.52-1.885-5.397 10.082-2.79-1.492 5.395-10.083-3.503-1.875 1.211-2.265 9.816 5.252zM188.623 73.947l-2.551-1.854 8.237-11.327 2.55 1.856zM206.615 74.498l-3.622-3.361-2.338 2.52 3.33 3.089-1.742 1.875-3.329-3.088-3.699 3.987-2.313-2.146 9.526-10.266 5.935 5.507zM203.86 88.893l-1.999-2.44 10.836-8.873 1.997 2.442zM211.592 100.413l-4.426-7.137 11.9-7.382 4.257 6.863-2.182 1.355-2.594-4.183-2.648 1.642 2.415 3.892-2.175 1.348-2.414-3.892-2.723 1.689 2.766 4.456zM225.465 103.083l-8.264 3.247.573 1.454c.5 1.272 1.273 2.12 2.322 2.544 1.047.424 2.229.379 3.544-.139 1.24-.487 2.078-1.23 2.508-2.228.429-.998.389-2.145-.12-3.441l-.563-1.438zm-11.797 1.246l13.033-5.121 1.815 4.617c1.818 4.63.61 7.776-3.625 9.441-2.031.797-3.9.802-5.608.014-1.71-.785-2.975-2.231-3.801-4.334l-1.814-4.617zM221.807 143.825l-.156-3.111 8.369-.422a42.696 42.696 0 0 1 3-.033l-.004-.08c-.867-.118-1.492-.233-1.875-.345l-9.675-2.798-.13-2.574 9.244-3.81c.25-.104.892-.282 1.928-.537l-.004-.088a59.899 59.899 0 0 1-3.621.309l-7.734.39-.143-2.84 13.986-.703.23 4.614-8.144 3.275c-.652.26-1.31.46-1.974.598l.002.059a20.32 20.32 0 0 1 2.047.454l8.414 2.442.227 4.495-13.987.705zM231.496 157.03c.197-1.088-.053-2.027-.754-2.816-.699-.79-1.723-1.306-3.067-1.55-1.365-.248-2.503-.124-3.413.372-.91.497-1.46 1.264-1.649 2.3-.194 1.07.037 1.99.695 2.757.658.769 1.672 1.277 3.043 1.526 1.428.26 2.594.158 3.5-.306.905-.465 1.454-1.225 1.645-2.282m-11.553-2.24c.36-1.972 1.293-3.463 2.803-4.472 1.51-1.01 3.296-1.326 5.36-.952 2.177.396 3.824 1.347 4.94 2.854 1.115 1.506 1.483 3.3 1.106 5.382-.357 1.966-1.29 3.439-2.799 4.419-1.507.98-3.316 1.279-5.423.896-2.164-.394-3.796-1.34-4.893-2.84-1.098-1.5-1.463-3.262-1.094-5.286M227.25 173.088l-3.09-1.215-.507 1.29c-.239.606-.278 1.14-.122 1.605.156.464.492.797 1.008 1 .957.376 1.717-.151 2.279-1.58l.432-1.1zm-5.27-2.074l-3.435-1.351-.626 1.59c-.267.679-.318 1.273-.155 1.782.164.508.519.87 1.064 1.084.521.205 1.004.177 1.449-.085.448-.262.803-.732 1.071-1.411l.632-1.61zm-4.444-5.137l13.032 5.126-1.865 4.744c-.572 1.454-1.279 2.467-2.119 3.039-.841.572-1.746.667-2.715.286a2.867 2.867 0 0 1-1.564-1.44c-.34-.683-.469-1.434-.383-2.253l-.036-.015c-.481.882-1.115 1.488-1.902 1.818-.788.33-1.589.334-2.408.013-1.193-.47-1.972-1.27-2.336-2.4-.363-1.128-.255-2.432.326-3.911l1.97-5.007zM209.874 182.404l1.563-2.74 12.162 6.947-1.565 2.739zM201.91 193.723l5.031-6.651 11.17 8.448-1.904 2.516-9.128-6.905-3.128 4.135zM193.08 202.634l6.02-5.858 9.765 10.036-5.788 5.633-1.79-1.841 3.526-3.432-2.17-2.233-3.284 3.195-1.785-1.834 3.283-3.195-2.234-2.295-3.758 3.657zM186.043 221.693l-2.133-3.81-1.083.607c-1.466.82-1.839 1.873-1.119 3.157.702 1.255 1.786 1.472 3.253.65l1.082-.604zm-3.303-5.896l-2.356-4.21 2.751-1.541 6.843 12.219-4.311 2.414c-3.079 1.724-5.345 1.288-6.799-1.307-.687-1.227-.802-2.468-.343-3.72.458-1.253 1.426-2.293 2.904-3.12l1.311-.735zM171.106 228.743l-1.264-3.686-1.294.444c-.639.219-1.09.58-1.35 1.083a1.951 1.951 0 0 0-.114 1.597c.396 1.158 1.288 1.5 2.673 1.025l1.35-.463zm-11.904-8.225l3.426-1.174 3.23 2.702c.242.206.47.386.681.54.211.156.414.28.61.376.192.094.382.154.565.177.184.023.368.002.552-.06l.804-.275-1.738-5.073 2.984-1.022 4.54 13.247-4.729 1.62c-3.215 1.103-5.235.453-6.057-1.95a3.937 3.937 0 0 1-.227-1.351c.008-.44.086-.861.238-1.263.151-.404.371-.782.66-1.135a5.105 5.105 0 0 1 1.04-.955l-.014-.037a2.008 2.008 0 0 1-.675-.104 4.388 4.388 0 0 1-.702-.301 7.34 7.34 0 0 1-.699-.426c-.23-.16-.443-.318-.643-.477l-3.846-3.06zM151.592 233.432c1.096-.151 1.91-.682 2.44-1.594.534-.91.706-2.043.519-3.398-.188-1.373-.66-2.416-1.416-3.127-.754-.711-1.654-.995-2.7-.85-1.076.148-1.878.654-2.404 1.518-.523.864-.691 1.987-.501 3.367.199 1.438.658 2.515 1.38 3.23.724.716 1.618 1 2.682.854m-1.471-11.677c1.987-.273 3.696.15 5.124 1.272 1.43 1.12 2.286 2.719 2.574 4.796.3 2.193-.09 4.054-1.174 5.583-1.084 1.53-2.674 2.439-4.77 2.728-1.98.272-3.67-.156-5.072-1.284-1.4-1.128-2.246-2.753-2.54-4.875-.3-2.18.093-4.025 1.177-5.534 1.083-1.51 2.644-2.405 4.68-2.686M130.223 233.943l4.937.21.146-3.435-4.537-.192.108-2.557 4.537.193.23-5.434 3.153.134-.595 13.99-8.088-.343zM117.938 220.277l8.237 1.638-2.731 13.735-7.92-1.575.5-2.52 4.828.96.606-3.055-4.492-.893.5-2.51 4.493.893.624-3.141-5.144-1.023zM114.059 219.733l-1.088 2.93a5.988 5.988 0 0 0-3.12-2.68 4.461 4.461 0 0 0-1.011-.261 2.444 2.444 0 0 0-.801.02c-.23.05-.42.139-.572.267a1.212 1.212 0 0 0-.367 1.244c.07.255.2.516.392.78.19.265.428.542.717.83.289.288.605.589.946.903.867.809 1.438 1.614 1.713 2.418.274.803.25 1.64-.075 2.514-.254.683-.61 1.22-1.066 1.609-.457.389-.98.655-1.572.797a5.377 5.377 0 0 1-1.904.089 8.975 8.975 0 0 1-2.06-.51 12.556 12.556 0 0 1-1.772-.798 7.665 7.665 0 0 1-1.32-.922l1.018-2.737c.163.234.352.457.569.669a6.16 6.16 0 0 0 1.45 1.06c.258.137.509.252.753.342.336.124.652.206.95.244.3.038.566.034.797-.012.234-.046.43-.13.595-.253.164-.123.283-.286.357-.487a1.11 1.11 0 0 0 .046-.655 2.158 2.158 0 0 0-.31-.678 5.613 5.613 0 0 0-.61-.746c-.25-.264-.536-.546-.862-.847a12.272 12.272 0 0 1-1.154-1.226 5.33 5.33 0 0 1-.764-1.237 3.466 3.466 0 0 1-.291-1.321c-.01-.46.083-.954.28-1.485.273-.732.64-1.296 1.102-1.69a3.61 3.61 0 0 1 1.579-.788 5.224 5.224 0 0 1 1.908-.047c.682.1 1.373.28 2.075.54.72.269 1.382.584 1.988.948.605.363 1.099.755 1.484 1.176M101.543 214.72l-1.549 2.715a5.996 5.996 0 0 0-2.643-3.15 4.515 4.515 0 0 0-.956-.422 2.424 2.424 0 0 0-.793-.11 1.296 1.296 0 0 0-.609.17 1.12 1.12 0 0 0-.405.416c-.135.237-.19.488-.159.752.028.264.116.543.26.835.144.292.335.603.575.934.237.33.5.679.786 1.045.723.938 1.155 1.826 1.296 2.663.141.837-.02 1.66-.481 2.469-.361.633-.799 1.104-1.312 1.414a3.731 3.731 0 0 1-1.682.532 5.376 5.376 0 0 1-1.892-.22 8.986 8.986 0 0 1-1.952-.838 12.725 12.725 0 0 1-1.617-1.075 7.655 7.655 0 0 1-1.152-1.125l1.447-2.535c.123.257.274.508.453.753a6.339 6.339 0 0 0 1.259 1.28c.232.178.462.33.688.46.311.178.611.31.899.395.289.086.551.125.787.118.236-.007.445-.058.628-.153.182-.095.325-.237.433-.423.115-.204.166-.417.15-.64a2.153 2.153 0 0 0-.196-.718 5.72 5.72 0 0 0-.48-.836c-.203-.3-.441-.625-.713-.975a12.24 12.24 0 0 1-.941-1.397 5.326 5.326 0 0 1-.554-1.345 3.477 3.477 0 0 1-.072-1.351c.064-.454.237-.927.518-1.42.387-.677.84-1.174 1.361-1.488a3.622 3.622 0 0 1 1.686-.522 5.221 5.221 0 0 1 1.891.264c.656.21 1.309.5 1.96.87.667.382 1.269.8 1.807 1.257.538.457.962.924 1.274 1.402M87.274 204.855l2.505 1.917-8.51 11.121-2.504-1.917zM70.488 205.064c.764.8 1.672 1.149 2.721 1.046 1.05-.103 2.07-.627 3.058-1.571 1.002-.958 1.571-1.952 1.704-2.98.134-1.028-.163-1.924-.89-2.686-.753-.786-1.632-1.14-2.64-1.06-1.009.082-2.016.604-3.023 1.566-1.049 1.004-1.653 2.008-1.809 3.013-.156 1.005.137 1.895.88 2.672m8.601-8.031c1.384 1.45 2.043 3.082 1.97 4.897-.07 1.815-.863 3.446-2.38 4.895-1.6 1.529-3.337 2.302-5.212 2.32-1.875.017-3.542-.74-5.004-2.27-1.38-1.444-2.025-3.064-1.93-4.86.093-1.797.914-3.435 2.462-4.914 1.592-1.521 3.316-2.284 5.174-2.29 1.86-.006 3.498.734 4.92 2.222M64.888 177.94l1.667 2.713-4.477 9.523c-.261.558-.468.96-.623 1.208l.022.033c.394-.304 1.023-.721 1.889-1.253l6.557-4.028 1.56 2.538-11.934 7.33-1.778-2.896 4.355-9.197c.195-.417.397-.816.607-1.197l-.022-.033c-.25.215-.783.572-1.597 1.073l-6.6 4.054-1.56-2.538 11.934-7.33zM55.053 168.264l-3.924 3.004a6.007 6.007 0 0 1-1.106.646l.026.074a5.297 5.297 0 0 1 1.232-.182l4.98-.168-1.208-3.374zm3.47-6.723l1.16 3.236-2.595 1.99 1.682 4.688 3.265-.123 1.153 3.218-14.903-.073-1.261-3.52 11.5-9.416zM56.384 149.463l1.424 8.217-13.798 2.39-.54-3.107 11.278-1.954-.885-5.11z"/></g></g></svg>