<svg width="277" height="278" viewBox="0 0 277 278" xmlns="http://www.w3.org/2000/svg" xmlns:xlink="http://www.w3.org/1999/xlink"><title>Group 6</title><defs><linearGradient x1="79.903%" y1="12.995%" x2="21.484%" y2="88.39%" id="b"><stop stop-color="#FBDA61" offset="0%"/><stop stop-color="#E7963B" offset="49.117%"/><stop stop-color="#F1C50E" offset="100%"/></linearGradient><path d="M3.097 148.533l5.977-4.065c2.244-1.512 3.369-3.506 3.369-5.497 0-1.994-1.125-3.989-3.37-5.5l-5.976-4.047C1.023 128.014 0 126.367 0 124.808c0-1.806 1.367-3.499 4.05-4.58l6.703-2.723c2.984-1.207 4.558-3.408 4.558-5.808 0-1.643-.736-3.38-2.259-4.96l-5.023-5.215c-1.45-1.504-2.143-3.016-2.143-4.362-.004-2.132 1.744-3.84 5.008-4.427l7.112-1.254c3.684-.66 5.784-3.032 5.784-5.947 0-1.298-.417-2.705-1.294-4.115l-3.837-6.135c-.867-1.4-1.277-2.705-1.277-3.844 0-2.596 2.147-4.3 5.911-4.166l7.232.232c4.29.152 7.013-2.353 7.013-5.94 0-.924-.177-1.917-.558-2.954l-2.459-6.806c-.384-1.063-.566-2.035-.566-2.901 0-3.278 2.615-4.997 6.757-3.963l7.02 1.733c4.799 1.196 8.284-1.476 8.284-6.015 0-.432-.033-.878-.095-1.338l-1.008-7.18a10.286 10.286 0 0 1-.101-1.41c0-4.344 3.184-6.168 7.58-4.018l6.509 3.166c4.863 2.35 9.16-.124 9.53-5.5l.515-7.213c.388-5.395 4.19-7.092 8.454-3.767l5.712 4.438c4.261 3.325 8.965 1.788 10.466-3.394l1.998-6.95c1.505-5.197 5.57-6.063 9.056-1.926l4.653 5.533c3.481 4.137 8.399 3.626 10.945-1.15l3.394-6.381c2.55-4.757 6.716-4.757 9.266 0l3.394 6.382c2.546 4.775 7.464 5.286 10.945 1.149l4.671-5.533c3.467-4.137 7.533-3.27 9.038 1.925l1.998 6.951c1.501 5.182 6.205 6.719 10.466 3.394l5.712-4.438c4.265-3.325 8.065-1.628 8.453 3.767l.515 7.212c.388 5.377 4.668 7.85 9.531 5.5l6.51-3.165c4.395-2.15 7.58-.326 7.58 4.018 0 .442-.034.913-.102 1.41l-1.009 7.18c-.065.46-.094.906-.094 1.338 0 4.543 3.485 7.211 8.283 6.015l7.021-1.733c4.153-1.034 6.756.685 6.756 3.956 0 .866-.18 1.845-.565 2.908l-2.46 6.805c-.38 1.038-.558 2.031-.558 2.952 0 3.59 2.728 6.095 7.032 5.943l7.214-.232c3.764-.134 5.91 1.57 5.91 4.166 0 1.139-.409 2.444-1.276 3.844l-3.837 6.135c-.877 1.41-1.294 2.817-1.294 4.115 0 2.915 2.1 5.287 5.784 5.947l7.112 1.254c3.264.587 5.008 2.295 5.008 4.427 0 1.346-.696 2.858-2.143 4.362l-5.023 5.214c-1.523 1.581-2.26 3.318-2.26 4.96 0 2.401 1.574 4.602 4.56 5.81l6.701 2.723c2.684 1.08 4.05 2.773 4.05 4.579 0 1.56-1.022 3.205-3.096 4.616l-5.977 4.046c-2.245 1.512-3.369 3.507-3.369 5.5 0 1.992 1.124 3.986 3.37 5.498l5.976 4.065c2.074 1.403 3.097 3.045 3.097 4.604 0 1.803-1.367 3.5-4.051 4.59l-6.702 2.706c-2.985 1.207-4.558 3.408-4.558 5.809 0 1.642.736 3.379 2.259 4.96l5.023 5.214c1.447 1.505 2.143 3.02 2.143 4.37 0 2.131-1.744 3.843-5.008 4.42l-7.112 1.272c-3.685.649-5.784 3.017-5.784 5.936 0 1.301.417 2.708 1.294 4.126l3.837 6.135c.867 1.392 1.277 2.698 1.277 3.833 0 2.588-2.147 4.3-5.911 4.177l-7.214-.25c-4.304-.142-7.032 2.36-7.032 5.953 0 .925.178 1.918.559 2.959l2.459 6.791c.384 1.063.565 2.038.565 2.905 0 3.274-2.603 4.993-6.756 3.974l-7.02-1.752c-4.799-1.178-8.284 1.48-8.284 6.03 0 .432.03.878.094 1.342l1.009 7.161c.068.497.101.968.101 1.414 0 4.34-3.184 6.164-7.58 4.014l-6.509-3.165c-4.863-2.35-9.143.127-9.53 5.518l-.516 7.212c-.388 5.396-4.188 7.074-8.453 3.75l-5.712-4.439c-4.261-3.325-8.965-1.784-10.466 3.394l-1.998 6.951c-1.505 5.196-5.57 6.063-9.038 1.926l-4.67-5.534c-3.482-4.137-8.4-3.607-10.946 1.15l-3.394 6.381c-2.55 4.776-6.717 4.776-9.266 0l-3.394-6.381c-2.546-4.757-7.464-5.287-10.945-1.15l-4.653 5.534c-3.485 4.137-7.55 3.27-9.056-1.926l-1.998-6.95c-1.501-5.179-6.205-6.72-10.466-3.395l-5.712 4.439c-4.265 3.324-8.066 1.646-8.454-3.75l-.515-7.212c-.37-5.391-4.667-7.868-9.53-5.518l-6.51 3.165c-4.395 2.15-7.58.326-7.58-4.014 0-.446.033-.917.102-1.414l1.008-7.161c.062-.464.095-.91.095-1.342 0-4.554-3.485-7.208-8.283-6.03l-7.021 1.752c-4.142 1.019-6.757-.704-6.757-3.982 0-.866.182-1.838.566-2.897l2.459-6.791c.38-1.04.558-2.038.558-2.959 0-3.593-2.723-6.095-7.013-5.954l-7.232.25c-3.764.124-5.91-1.588-5.91-4.176 0-1.135.409-2.44 1.276-3.833l3.837-6.135c.877-1.418 1.294-2.825 1.294-4.126 0-2.92-2.1-5.287-5.784-5.936l-7.112-1.273c-3.264-.576-5.008-2.288-5.008-4.42 0-1.349.693-2.864 2.143-4.37l5.023-5.213c1.523-1.581 2.26-3.318 2.26-4.96 0-2.4-1.575-4.602-4.56-5.81l-6.701-2.704C1.367 156.636 0 154.94 0 153.138c0-1.56 1.023-3.202 3.097-4.605z" id="a"/><path id="d" d="M.604.396v217.962h224.999V.396H.604z"/><path id="f" d="M.603.397h225v231.96h-225V.396z"/><path id="h" d="M225.603.396v217.962h-225V.396h225z"/><path id="j" d="M.604 232.356V.396h224.999v231.96H.604z"/><path id="l" d="M.387.397H30.75V72.62H.387V.397z"/><path id="n" d="M.35.397h23.034v78.14H.349V.397z"/><path id="p" d="M.822.397h23.034v78.14H.822z"/><path id="r" d="M.458.397h30.364V72.62H.457V.397z"/></defs><g fill="none" fill-rule="evenodd"><g><mask id="c" fill="#fff"><use xlink:href="#a"/></mask><use fill="url(#b)" xlink:href="#a"/><g mask="url(#c)"><path fill="#FBB100" d="M-86.396 412.535h449.999V-37.387H-86.396z"/><g transform="translate(-87 194.176)"><mask id="e" fill="#fff"><use xlink:href="#d"/></mask><path d="M-376.895 602.79c-121.53-121.506-174.548-285.57-159.066-444.213A657.534 657.534 0 0 1-614.272.396c-77.876 230.993-24.777 496.406 159.304 680.455C-270.888 864.9-5.43 917.991 225.602 840.126a657.631 657.631 0 0 1-158.205-78.297c-158.671 15.48-322.763-37.53-444.292-159.038" fill="#FFC500" mask="url(#e)"/></g><g transform="translate(138 -37.783)"><mask id="g" fill="#fff"><use xlink:href="#f"/></mask><path d="M681.175-448.097C497.095-632.147 231.634-685.237.603-607.374a657.753 657.753 0 0 1 158.207 78.298c158.67-15.478 322.763 37.53 444.293 159.038C724.63-248.53 777.65-84.465 762.167 74.177a657.62 657.62 0 0 1 78.313 158.18c77.875-230.992 24.775-496.405-159.305-680.454" fill="#D96B16" mask="url(#g)"/></g><g transform="translate(138 194.176)"><mask id="i" fill="#fff"><use xlink:href="#h"/></mask><path d="M603.1 602.79C481.575 724.3 317.48 777.31 158.81 761.83A657.583 657.583 0 0 1 .603 840.125c231.034 77.864 496.492 24.773 680.572-159.275C865.255 496.802 918.355 231.39 840.478.396a657.46 657.46 0 0 1-78.311 158.18C777.65 317.22 724.63 481.285 603.1 602.792" fill="#FFC500" mask="url(#i)"/></g><g transform="translate(-87 -37.783)"><mask id="k" fill="#fff"><use xlink:href="#j"/></mask><path d="M-376.895-370.037c121.529-121.508 285.62-174.518 444.292-159.039a657.746 657.746 0 0 1 158.206-78.297C-5.43-685.236-270.888-632.146-454.968-448.097-639.05-264.049-692.148 1.364-614.272 232.356a657.54 657.54 0 0 1 78.31-158.178c-15.481-158.644 37.538-322.707 159.067-444.215" fill="#D96B16" mask="url(#k)"/></g><path d="M286.63 295.42a128.53 128.53 0 0 1 5.818-3.158 380.477 380.477 0 0 0-7.423-21.537 465.857 465.857 0 0 1-17.309 20.256 320.506 320.506 0 0 0 18.914 4.439" fill="#FFD200"/><path d="M275.38 151.32a182.93 182.93 0 0 1-3.775-1.732 427.392 427.392 0 0 1-1.666 3.403 262.351 262.351 0 0 1 5.441-1.671" fill="#FEA700"/><path d="M271.605 149.588c1.254.592 2.512 1.17 3.775 1.731a266.66 266.66 0 0 1 29.196-6.813 458.19 458.19 0 0 0-15.297-20.725 150.492 150.492 0 0 1-5.365-2.468 380.461 380.461 0 0 1-12.31 28.275" fill="#FE9D00"/><path d="M230.654 220.112c-.793-.4-1.586-.802-2.377-1.212a381.013 381.013 0 0 1-4.88 6.087 220.396 220.396 0 0 1 7.257-4.875" fill="#FFCD00"/><path d="M245.892 194.573a384.97 384.97 0 0 1 7.969 12.487 220.68 220.68 0 0 1 31.797-12.487 220.544 220.544 0 0 1-31.797-12.483 383.718 383.718 0 0 1-7.969 12.483" fill="#FFC400"/><path d="M230.654 220.112a219.537 219.537 0 0 1 23.207-13.052 383.27 383.27 0 0 0-7.97-12.487 381.62 381.62 0 0 1-17.614 24.327c.79.41 1.584.813 2.377 1.212" fill="#FFC900"/><path d="M269.939 152.991a381.757 381.757 0 0 1-16.078 29.1 220.635 220.635 0 0 0 31.797 12.482 222.354 222.354 0 0 1 44.486-8.767 455.536 455.536 0 0 0-12.527-21.462 184.415 184.415 0 0 1-42.237-13.024c-1.82.534-3.632 1.096-5.441 1.671" fill="#FEB500"/><path d="M317.617 164.345a458.248 458.248 0 0 0-13.04-19.839 266.575 266.575 0 0 0-29.196 6.814 184.456 184.456 0 0 0 42.236 13.025" fill="#FEA700"/><path d="M220.003 275.96c.453-.453.916-.894 1.373-1.34-1.644-.727-3.289-1.452-4.924-2.211.758 1.636 1.483 3.28 2.211 4.924.447-.458.887-.92 1.34-1.374" fill="#FFD100"/><path d="M216.453 272.409a316.954 316.954 0 0 1-24.97-12.956 386.968 386.968 0 0 1-22.462 19.9 224.099 224.099 0 0 0-4.875 7.256 264.529 264.529 0 0 1 16.049 39.278c1.13.563 2.268 1.116 3.404 1.665 8.577-18.113 20.266-35.118 35.065-50.219a299.985 299.985 0 0 0-2.211-4.924" fill="#FFD700"/><path d="M275.38 237.827a262.286 262.286 0 0 1-5.44-1.67 427.41 427.41 0 0 1 1.665 3.404 183.017 183.017 0 0 1 3.775-1.734" fill="#FFCF00"/><path d="M223.398 224.987a387.984 387.984 0 0 1-19.902 22.459 317.505 317.505 0 0 1 12.957 24.963c1.634.757 3.279 1.485 4.924 2.212 15.103-14.797 32.11-26.484 50.228-35.06a381.798 381.798 0 0 0-1.666-3.403 264.622 264.622 0 0 1-39.285-16.046 219.338 219.338 0 0 0-7.256 4.875" fill="#FFD000"/><path d="M191.484 259.453a316.954 316.954 0 0 0 24.969 12.956 316.851 316.851 0 0 0-12.96-24.964 394.297 394.297 0 0 1-5.933 6.075 389.726 389.726 0 0 1-6.076 5.933" fill="#FFD000"/><path d="M269.939 236.157a260.43 260.43 0 0 0 5.44 1.67 184.51 184.51 0 0 1 42.238-13.024 455.983 455.983 0 0 0 12.527-21.459 222.362 222.362 0 0 1-44.486-8.771 220.998 220.998 0 0 0-31.8 12.486 381.091 381.091 0 0 1 16.08 29.098" fill="#FC0"/><path d="M269.939 236.157a381.091 381.091 0 0 0-16.08-29.098 220.274 220.274 0 0 0-23.205 13.053 264.622 264.622 0 0 0 39.285 16.045" fill="#FC0"/><path d="M218.663 277.333a317.545 317.545 0 0 1 12.29 32.44 155.816 155.816 0 0 1 10.84-12.03c3.86-3.86 7.88-7.47 12.03-10.837a317.532 317.532 0 0 1-32.446-12.286c-.457.446-.92.884-1.374 1.34-.452.452-.892.915-1.34 1.373" fill="#FFD600"/><path d="M218.663 277.333c-14.798 15.098-26.488 32.105-35.064 50.22a380.177 380.177 0 0 0 28.278 12.306 153.215 153.215 0 0 1 19.075-30.086 317.545 317.545 0 0 0-12.288-32.44" fill="#FFD900"/><path d="M271.605 239.561a380.44 380.44 0 0 1 12.309 28.273 154.14 154.14 0 0 1 5.365-2.468 458.674 458.674 0 0 0 15.297-20.723 266.214 266.214 0 0 1-29.196-6.816c-1.263.565-2.521 1.141-3.775 1.734" fill="#FFD000"/><path d="M253.824 286.906a153.115 153.115 0 0 1 30.09-19.071 380.28 380.28 0 0 0-12.31-28.274c-18.116 8.576-35.124 20.262-50.23 35.06a318.214 318.214 0 0 0 32.45 12.286" fill="#FFD000"/><path d="M304.576 244.643a457.655 457.655 0 0 0 13.04-19.838 184.352 184.352 0 0 0-42.235 13.022 266.09 266.09 0 0 0 29.195 6.816" fill="#FFCF00"/><path d="M267.716 290.98a465.213 465.213 0 0 0 17.31-20.255c-.367-.966-.74-1.928-1.113-2.89a153.237 153.237 0 0 0-30.09 19.072 317.114 317.114 0 0 0 13.893 4.072" fill="#FFD200"/><path d="M245.384 1.167a320.708 320.708 0 0 1-4.535 38.202 383.307 383.307 0 0 1 16.558-4.53 106.519 106.519 0 0 1-12.023-33.672" fill="#EC7213"/><g transform="translate(245 -37.783)"><mask id="m" fill="#fff"><use xlink:href="#l"/></mask><path d="M30.75 68.512C18.727 49.872 14.354 27.735 17.637 6.549A553.18 553.18 0 0 0 3.395-4.049c-.654.15-1.31.293-1.964.444-.39 1.72-.74 3.446-1.044 5.178a321.866 321.866 0 0 1 0 37.377 106.44 106.44 0 0 0 12.02 33.671 384.094 384.094 0 0 1 18.343-4.11" fill="#E77113" mask="url(#m)"/></g><path d="M276.5-20.208a555.556 555.556 0 0 0-13.863-11.026c-3.283 21.186 1.09 43.324 13.113 61.962a384.495 384.495 0 0 1 16.19-2.856c-10.9-14.077-16.05-31.157-15.44-48.08" fill="#E67013"/><path d="M291.939 27.872c4.881-.754 9.775-1.41 14.676-1.975a61.618 61.618 0 0 1-17.239-35.19 555.432 555.432 0 0 0-12.877-10.915c-.609 16.923 4.542 34.003 15.44 48.08" fill="#E87013"/><path d="M57.204 275.96c.453.452.891.915 1.338 1.373.728-1.645 1.456-3.288 2.212-4.924-1.634.759-3.278 1.484-4.922 2.211.456.446.92.887 1.372 1.34" fill="#FFD100"/><path d="M55.832 274.62a317.566 317.566 0 0 1-32.45 12.286 155.49 155.49 0 0 1 22.874 22.867 317.62 317.62 0 0 1 12.286-32.44c-.447-.458-.885-.92-1.338-1.374-.453-.452-.916-.893-1.372-1.338" fill="#FFD800"/><path d="M218.663 111.816c-.728 1.644-1.452 3.289-2.21 4.921 1.634-.756 3.278-1.482 4.924-2.21-.457-.446-.92-.885-1.374-1.338-.452-.453-.892-.916-1.34-1.373" fill="#FE9602"/><path d="M220.003 113.19c.453.452.916.89 1.373 1.338a318.009 318.009 0 0 1 32.447-12.287 155.435 155.435 0 0 1-22.87-22.867 317.667 317.667 0 0 1-12.29 32.442c.447.457.887.92 1.34 1.373" fill="#FD9207"/><path d="M267.716 98.168a319.73 319.73 0 0 1 18.914-4.44 128.59 128.59 0 0 1-26.682-20.479 128.45 128.45 0 0 1-20.48-26.677 320.577 320.577 0 0 1-4.443 18.91 465.752 465.752 0 0 1 32.691 32.685" fill="#FA8706"/><path d="M253.824 102.242a316.321 316.321 0 0 1 13.893-4.074 464.92 464.92 0 0 0-15.94-16.747 465.058 465.058 0 0 0-16.752-15.938 320.613 320.613 0 0 1-4.072 13.892 155.782 155.782 0 0 0 10.838 12.029 156.258 156.258 0 0 0 12.033 10.838" fill="#FB8C06"/><path d="M259.949 73.25a128.454 128.454 0 0 0 26.682 20.477c2.396-.488 4.799-.949 7.205-1.38a386.514 386.514 0 0 0 4.53-16.557 107.102 107.102 0 0 1-23.286-17.669 107.047 107.047 0 0 1-17.672-23.283 383.35 383.35 0 0 0-16.56 4.532 311.993 311.993 0 0 1-1.381 7.203 128.557 128.557 0 0 0 20.482 26.677" fill="#F98606"/><path d="M287.689 45.514a89.355 89.355 0 0 1-11.94-14.786 384.094 384.094 0 0 0-18.341 4.11A106.968 106.968 0 0 0 275.08 58.12a107.087 107.087 0 0 0 23.287 17.67 386.7 386.7 0 0 0 4.11-18.34 89.429 89.429 0 0 1-14.788-11.937" fill="#F98206"/><path d="M302.476 57.452a381.621 381.621 0 0 0 2.857-16.187 75.387 75.387 0 0 1-7.136-6.256 74.596 74.596 0 0 1-6.258-7.137 386.404 386.404 0 0 0-16.19 2.856 89.412 89.412 0 0 0 11.94 14.786 89.55 89.55 0 0 0 14.787 11.938" fill="#F77E07"/><path d="M108.185 279.354a387.34 387.34 0 0 1-22.463-19.9 316.255 316.255 0 0 1-24.969 12.955c-.756 1.635-1.482 3.279-2.211 4.924 14.801 15.1 26.489 32.106 35.067 50.22 1.137-.551 2.271-1.103 3.404-1.666a264.187 264.187 0 0 1 16.049-39.278 219.873 219.873 0 0 0-4.877-7.255" fill="#FFD900"/><path d="M46.255 309.774a153.083 153.083 0 0 1 19.074 30.085 380.255 380.255 0 0 0 28.28-12.306c-8.579-18.114-20.266-35.12-35.065-50.222a317.376 317.376 0 0 0-12.289 32.443" fill="#FFDB00"/><path d="M138.603 221.31a321.085 321.085 0 0 1-11.826 10.027 266.08 266.08 0 0 1 11.826 14.466 267.065 267.065 0 0 1 11.828-14.466 321.142 321.142 0 0 1-11.828-10.028" fill="#FFCE00"/><path d="M90.107 256.893a222.456 222.456 0 0 1 18.078 22.461 397.37 397.37 0 0 0 6.088 4.878 264.545 264.545 0 0 1 24.33-38.429 266.892 266.892 0 0 0-11.828-14.466 318.006 318.006 0 0 1-36.668 25.556" fill="#FFD000"/><path d="M85.722 259.453a386.968 386.968 0 0 0 22.463 19.9 222.18 222.18 0 0 0-18.078-22.46 311.003 311.003 0 0 1-4.385 2.56" fill="#FFD100"/><path d="M165.343 194.573a321.144 321.144 0 0 1 10.03 11.827 267.89 267.89 0 0 1 14.468-11.827 266.86 266.86 0 0 1-14.469-11.823 320.2 320.2 0 0 1-10.029 11.823" fill="#FFC500"/><path d="M138.603 221.31a321.142 321.142 0 0 0 11.828 10.027c3.854-4.392 7.858-8.7 12.049-12.89 4.191-4.191 8.5-8.195 12.893-12.047a322.158 322.158 0 0 0-10.03-11.827 324.016 324.016 0 0 1-12.965 13.773 324.695 324.695 0 0 1-13.775 12.963" fill="#FFCA00"/><path d="M230.654 169.037a223.671 223.671 0 0 1-7.256-4.876 377.68 377.68 0 0 1 4.879 6.087c.79-.41 1.584-.81 2.377-1.21" fill="#FEB100"/><path d="M175.373 182.75a266.86 266.86 0 0 0 14.469 11.823 264.897 264.897 0 0 1 38.434-24.325 371.217 371.217 0 0 0-4.879-6.087 222.753 222.753 0 0 1-22.464-18.073 318.506 318.506 0 0 1-25.56 36.662" fill="#FEB400"/><path d="M216.453 116.738a316.502 316.502 0 0 1-12.96 24.964 386.57 386.57 0 0 1 19.905 22.459c2.393 1.682 4.815 3.3 7.256 4.876a264.67 264.67 0 0 1 39.285-16.046 356.26 356.26 0 0 0 1.666-3.403c-18.117-8.578-35.125-20.264-50.228-35.06-1.645.728-3.29 1.453-4.924 2.21" fill="#FE9F00"/><path d="M223.398 164.161a386.613 386.613 0 0 0-19.904-22.459 310.824 310.824 0 0 1-2.561 4.383 222.353 222.353 0 0 0 22.465 18.076" fill="#FEAA00"/><path d="M221.376 114.528c15.102 14.796 32.111 26.482 50.23 35.06a380.45 380.45 0 0 0 12.307-28.275 153.15 153.15 0 0 1-30.09-19.072 317.83 317.83 0 0 0-32.447 12.287" fill="#FE9B00"/><path d="M267.716 98.168a463.488 463.488 0 0 1 17.31 20.257 381.57 381.57 0 0 0 7.422-21.538c-1.96-1-3.9-2.053-5.818-3.16a319.73 319.73 0 0 0-18.914 4.441" fill="#FE9504"/><path d="M253.824 102.242a153.161 153.161 0 0 0 30.09 19.071c.373-.961.746-1.924 1.11-2.888a463.462 463.462 0 0 0-17.307-20.257 316.321 316.321 0 0 0-13.893 4.074" fill="#FE9603"/><path d="M150.431 231.337a267.842 267.842 0 0 0-11.828 14.467 264.365 264.365 0 0 1 24.33 38.428 376.63 376.63 0 0 0 6.088-4.878 222.611 222.611 0 0 1 18.078-22.46 318.13 318.13 0 0 1-36.668-25.557" fill="#FFD000"/><path d="M138.603 245.803a264.405 264.405 0 0 0-24.33 38.43 383.92 383.92 0 0 0 24.33 17.612 383.92 383.92 0 0 0 24.33-17.612 264.235 264.235 0 0 0-24.33-38.43" fill="#FFD200"/><path d="M200.933 243.06a222.47 222.47 0 0 1 22.465-18.073 386.68 386.68 0 0 0 4.879-6.087 264.729 264.729 0 0 1-38.436-24.324 266.407 266.407 0 0 0-14.469 11.824 317.938 317.938 0 0 1 25.561 36.66" fill="#FC0"/><path d="M150.431 231.337a318.13 318.13 0 0 0 36.668 25.557 225.572 225.572 0 0 1 6.756-7.077c2.32-2.32 4.685-4.562 7.078-6.756a318.198 318.198 0 0 0-25.56-36.66 270.193 270.193 0 0 0-12.893 12.045 270.227 270.227 0 0 0-12.049 12.891" fill="#FFCE00"/><path d="M228.277 170.248a381.65 381.65 0 0 1 17.615 24.325 378.632 378.632 0 0 0 7.967-12.483 220.622 220.622 0 0 1-23.205-13.053c-.793.4-1.588.802-2.377 1.211" fill="#FEBD00"/><path d="M189.841 194.573a264.44 264.44 0 0 0 38.436 24.327 382.406 382.406 0 0 0 17.615-24.327 383.223 383.223 0 0 0-17.615-24.325 264.596 264.596 0 0 0-38.436 24.325" fill="#FFC400"/><path d="M253.86 182.09a380.722 380.722 0 0 0 16.079-29.1 264.627 264.627 0 0 0-39.285 16.047 219.892 219.892 0 0 0 23.207 13.053" fill="#FEB300"/><path d="M169.02 279.354a387.34 387.34 0 0 0 22.464-19.9 333.6 333.6 0 0 1-4.385-2.561 222.734 222.734 0 0 0-18.078 22.461" fill="#FFD100"/><path d="M203.495 247.446a387.61 387.61 0 0 0 19.902-22.46 223.111 223.111 0 0 0-22.464 18.074 333.77 333.77 0 0 1 2.563 4.386" fill="#FFCF00"/><path d="M193.857 249.817a226.719 226.719 0 0 0-6.758 7.076c1.455.868 2.92 1.719 4.385 2.563a394.679 394.679 0 0 0 6.074-5.937 389.995 389.995 0 0 0 5.938-6.073 316.943 316.943 0 0 0-2.563-4.386 226.695 226.695 0 0 0-7.076 6.757" fill="#FFD000"/><path d="M1.828 237.827c1.262.562 2.52 1.142 3.774 1.734a427.41 427.41 0 0 1 1.666-3.404 264.081 264.081 0 0 1-5.44 1.67" fill="#FFCF00"/><path d="M5.601 239.561a188.842 188.842 0 0 0-3.774-1.734 266.214 266.214 0 0 1-29.196 6.816 459.44 459.44 0 0 0 15.297 20.723c1.801.783 3.587 1.613 5.366 2.468a380 380 0 0 1 12.307-28.273" fill="#FFD000"/><path d="M181.865 57.821a268.412 268.412 0 0 1-1.67 5.44 395.433 395.433 0 0 1 3.402-1.666 188.312 188.312 0 0 1-1.732-3.774" fill="#F98406"/><path d="M188.681 28.63c7.02 4.878 13.93 9.98 20.727 15.294-9.77-22.482-13.913-46.819-12.444-70.876-1.465.517-2.928 1.04-4.388 1.573.531 18.06-.77 36.162-3.895 54.009" fill="#E97113"/><path d="M183.6 61.595a380.723 380.723 0 0 1 28.276-12.306 154.112 154.112 0 0 1-2.468-5.365 458.972 458.972 0 0 0-20.727-15.294 265.979 265.979 0 0 1-6.816 29.19c.564 1.264 1.14 2.522 1.734 3.775" fill="#F77E07"/><path d="M209.408 43.924a466.684 466.684 0 0 1 5.359 4.254 381.723 381.723 0 0 1 21.54-7.423c-12.092-23.725-16.33-50.42-12.704-76.226a459.653 459.653 0 0 0-26.64 8.518c-1.467 24.058 2.675 48.395 12.445 70.877" fill="#E97212"/><path d="M214.767 48.178a466.684 466.684 0 0 0-5.359-4.254 153.263 153.263 0 0 0 2.468 5.365c.963-.374 1.926-.746 2.891-1.11" fill="#F77F07"/><g transform="translate(222 -37.783)"><mask id="o" fill="#fff"><use xlink:href="#n"/></mask><path d="M14.308 78.537c1.512-.47 3.025-.933 4.541-1.384a320.708 320.708 0 0 0 4.535-38.203 107.574 107.574 0 0 1 0-37.376c-.094-1.62-.183-3.239-.303-4.858A459.059 459.059 0 0 0 1.603 2.312c-3.625 25.807.613 52.501 12.705 76.225" fill="#EC7312" mask="url(#o)"/></g><path d="M245.384-36.21a107.574 107.574 0 0 0 0 37.377 320.54 320.54 0 0 0 0-37.376" fill="#E06D14"/><path d="M9.49 290.98a464.469 464.469 0 0 1-17.307-20.255 380.746 380.746 0 0 0-7.425 21.537c1.96 1 3.9 2.052 5.819 3.157a317.528 317.528 0 0 0 18.913-4.44" fill="#FFD300"/><path d="M46.552 220.112a218.29 218.29 0 0 1 7.256 4.875 398.534 398.534 0 0 1-4.879-6.087c-.789.41-1.582.813-2.377 1.212" fill="#FFCD00"/><path d="M60.753 272.409a316.851 316.851 0 0 1 12.96-24.964 387.648 387.648 0 0 1-19.905-22.459 221.44 221.44 0 0 0-7.256-4.874A264.73 264.73 0 0 1 7.27 236.157a368.538 368.538 0 0 0-1.668 3.404c18.117 8.576 35.127 20.262 50.23 35.06 1.645-.727 3.29-1.453 4.922-2.212" fill="#FFD000"/><path d="M55.832 274.62c-15.104-14.797-32.111-26.483-50.23-35.058-4.5 9.289-8.604 18.72-12.31 28.273a153.12 153.12 0 0 1 30.09 19.071 317.566 317.566 0 0 0 32.45-12.285" fill="#FFD000"/><path d="M23.384 286.906a153.15 153.15 0 0 0-30.09-19.071c-.375.963-.746 1.923-1.11 2.89a464.443 464.443 0 0 0 17.305 20.254 318.584 318.584 0 0 0 13.895-4.072" fill="#FFD200"/><path d="M111.863 194.573a322.162 322.162 0 0 1-10.03-11.823 265.321 265.321 0 0 1-14.468 11.823 266.34 266.34 0 0 1 14.469 11.827 323.118 323.118 0 0 1 10.029-11.827" fill="#FFC500"/><path d="M101.833 206.4a267.113 267.113 0 0 0-14.469-11.827A264.55 264.55 0 0 1 48.931 218.9a362.776 362.776 0 0 0 4.877 6.087 222.764 222.764 0 0 1 22.464 18.074 318.31 318.31 0 0 1 25.561-36.661" fill="#FC0"/><path d="M53.808 224.987a388.022 388.022 0 0 0 19.904 22.459c.844-1.466 1.692-2.93 2.561-4.386a222.887 222.887 0 0 0-22.465-18.073" fill="#FFCF00"/><path d="M138.603 167.84a319.163 319.163 0 0 1 11.828-10.027 267.494 267.494 0 0 1-11.828-14.469 266.507 266.507 0 0 1-11.826 14.469 319.106 319.106 0 0 1 11.826 10.026" fill="#FEA800"/><path d="M138.603 167.84a319.106 319.106 0 0 0-11.826-10.027 272.25 272.25 0 0 1-12.051 12.888 268.343 268.343 0 0 1-12.893 12.049 325.182 325.182 0 0 0 10.03 11.823A325.257 325.257 0 0 1 124.83 180.8a324.031 324.031 0 0 1 13.773-12.962" fill="#FEB900"/><path d="M164.146 102.54c-.4.792-.803 1.586-1.213 2.376a387.8 387.8 0 0 1 6.088 4.877 220.833 220.833 0 0 1-4.875-7.253" fill="#FE9406"/><path d="M187.1 132.254a222.734 222.734 0 0 1-18.079-22.461 397.086 397.086 0 0 0-6.086-4.876 264.603 264.603 0 0 1-24.332 38.428 267.454 267.454 0 0 0 11.828 14.467 318.015 318.015 0 0 1 36.668-25.558" fill="#FE9B00"/><path d="M169.02 109.793a387.715 387.715 0 0 1 22.464 19.9 317.63 317.63 0 0 1 24.969-12.955 304.509 304.509 0 0 0 2.21-4.922c-14.798-15.1-26.488-32.106-35.064-50.222a356.96 356.96 0 0 0-3.404 1.667 264.672 264.672 0 0 1-16.05 39.28 219.732 219.732 0 0 0 4.876 7.252" fill="#FD9006"/><path d="M191.484 129.694a387.34 387.34 0 0 0-22.463-19.9 222.734 222.734 0 0 0 18.078 22.46c1.455-.87 2.92-1.716 4.385-2.56" fill="#FE9800"/><path d="M230.953 79.374a153.086 153.086 0 0 1-19.076-30.085 380.982 380.982 0 0 0-28.278 12.306c8.577 18.116 20.266 35.12 35.065 50.221a318.138 318.138 0 0 0 12.289-32.442" fill="#FC8D06"/><path d="M239.466 46.573a129.562 129.562 0 0 1-3.158-5.82 381.735 381.735 0 0 0-21.54 7.425 463.888 463.888 0 0 1 20.26 17.305 320.544 320.544 0 0 0 4.438-18.91" fill="#F98206"/><path d="M230.953 79.374a319.746 319.746 0 0 0 4.072-13.891 463.94 463.94 0 0 0-20.258-17.305c-.964.365-1.927.737-2.89 1.11a153.086 153.086 0 0 0 19.076 30.086" fill="#F98606"/><path d="M240.85 39.37c-1.517.451-3.03.913-4.542 1.384 1 1.96 2.053 3.9 3.158 5.819.488-2.398.95-4.798 1.383-7.204" fill="#F67D08"/><path d="M73.712 247.446a316.851 316.851 0 0 0-12.959 24.963 316.604 316.604 0 0 0 24.97-12.955 408.446 408.446 0 0 1-6.075-5.933 389.764 389.764 0 0 1-5.936-6.075" fill="#FFD000"/><path d="M111.863 194.573a323.118 323.118 0 0 0-10.03 11.827 269.77 269.77 0 0 1 12.893 12.047 268.267 268.267 0 0 1 12.05 12.89 322.099 322.099 0 0 0 11.827-10.028 324.656 324.656 0 0 1-13.775-12.964 325.34 325.34 0 0 1-12.965-13.772" fill="#FFCB00"/><path d="M101.833 206.4a318.31 318.31 0 0 0-25.56 36.66 222.32 222.32 0 0 1 7.078 6.757 223.276 223.276 0 0 1 6.755 7.076 318.201 318.201 0 0 0 36.67-25.556 270.23 270.23 0 0 0-12.05-12.89 269.28 269.28 0 0 0-12.893-12.047" fill="#FFCE00"/><path d="M83.351 249.817a224.552 224.552 0 0 0-7.078-6.757 322.804 322.804 0 0 0-2.561 4.386 389.764 389.764 0 0 0 5.936 6.075 404.022 404.022 0 0 0 6.074 5.935 321.17 321.17 0 0 0 4.385-2.563 226.647 226.647 0 0 0-6.756-7.076" fill="#FFD000"/><path d="M150.431 157.812a320.432 320.432 0 0 0-11.828 10.026 325.327 325.327 0 0 1 13.775 12.965 322.77 322.77 0 0 1 12.965 13.77c3.453-3.879 6.8-7.82 10.03-11.824a270.24 270.24 0 0 1-12.893-12.048 270.207 270.207 0 0 1-12.049-12.89" fill="#FEB900"/><path d="M138.603 167.84A324.031 324.031 0 0 0 124.83 180.8a325.257 325.257 0 0 0-12.967 13.772 324.09 324.09 0 0 0 12.967 13.773 321.514 321.514 0 0 0 13.773 12.963 322.75 322.75 0 0 0 13.775-12.963c4.489-4.489 8.799-9.09 12.965-13.773a325.205 325.205 0 0 0-12.965-13.772 325.287 325.287 0 0 0-13.775-12.962" fill="#FFC400"/><path d="M162.48 170.702c4.19 4.19 8.5 8.194 12.893 12.048a318.422 318.422 0 0 0 25.56-36.663 226.658 226.658 0 0 1-7.076-6.756 225.59 225.59 0 0 1-6.758-7.076 318.188 318.188 0 0 0-36.668 25.557 271.204 271.204 0 0 0 12.049 12.89" fill="#FEAC00"/><path d="M197.56 135.628a403.528 403.528 0 0 1 5.934 6.073 316.482 316.482 0 0 0 12.959-24.962 316.943 316.943 0 0 0-24.969 12.955 389.87 389.87 0 0 1 6.076 5.934" fill="#FE9B00"/><path d="M191.484 129.694c-1.465.844-2.93 1.69-4.385 2.56a223.36 223.36 0 0 0 6.758 7.077 225.64 225.64 0 0 0 7.076 6.757c.869-1.457 1.717-2.92 2.56-4.386a398.744 398.744 0 0 0-5.933-6.073 385.4 385.4 0 0 0-6.076-5.935" fill="#FE9E00"/><path d="M31.314 194.573c-2.742-4.12-5.4-8.283-7.967-12.483A220.635 220.635 0 0 1-8.45 194.573a220.772 220.772 0 0 1 31.797 12.487 384.908 384.908 0 0 1 7.967-12.487" fill="#FFC400"/><path d="M7.269 236.157a380.379 380.379 0 0 1 16.078-29.098 220.894 220.894 0 0 0-31.798-12.486 222.372 222.372 0 0 1-44.487 8.771 457.755 457.755 0 0 0 12.528 21.46 184.534 184.534 0 0 1 42.238 13.023c1.818-.534 3.63-1.096 5.441-1.67" fill="#FC0"/><path d="M-40.41 224.805a459.18 459.18 0 0 0 13.04 19.839 266.642 266.642 0 0 0 29.197-6.817 184.407 184.407 0 0 0-42.237-13.022" fill="#FFCF00"/><path d="M46.552 169.037c.793.4 1.588.801 2.377 1.211a388.98 388.98 0 0 1 4.88-6.087 221.503 221.503 0 0 1-7.257 4.876" fill="#FEB100"/><path d="M46.552 169.037a219.864 219.864 0 0 1-23.205 13.053c2.566 4.2 5.225 8.363 7.97 12.483a382.401 382.401 0 0 1 17.612-24.325c-.789-.41-1.584-.81-2.377-1.21" fill="#FEBE00"/><path d="M113.062 102.54a220.897 220.897 0 0 1-4.877 7.253 387.8 387.8 0 0 1 6.088-4.877c-.41-.79-.811-1.584-1.211-2.376" fill="#FE9406"/><path d="M138.603 87.304c4.123-2.743 8.285-5.4 12.488-7.967a220.683 220.683 0 0 1-12.488-31.791 220.672 220.672 0 0 1-12.486 31.791 382.123 382.123 0 0 1 12.486 7.967" fill="#F98506"/><path d="M114.273 104.916a382.106 382.106 0 0 1 24.33-17.61 380.478 380.478 0 0 0-12.486-7.968 220.275 220.275 0 0 1-13.055 23.202c.4.792.8 1.586 1.21 2.376" fill="#FD9107"/><path d="M168.84 15.592a185.583 185.583 0 0 1-2.954-30.258 454.731 454.731 0 0 0-17.836 8.278 221.446 221.446 0 0 1-.678 9.454 457.994 457.994 0 0 1 21.467 12.526" fill="#E77014"/><path d="M180.195 63.262a268.41 268.41 0 0 0 1.67-5.44 184.385 184.385 0 0 1-13.027-42.23 457.36 457.36 0 0 0-21.463-12.526 222.193 222.193 0 0 1-8.772 44.48 220.735 220.735 0 0 0 12.487 31.792 380.516 380.516 0 0 1 29.105-16.076" fill="#F47B0B"/><path d="M188.681 28.63a267.592 267.592 0 0 0 3.895-54.009 456.989 456.989 0 0 0-26.692 10.713 185.818 185.818 0 0 0 2.955 30.258 457.726 457.726 0 0 1 19.842 13.038" fill="#E97113"/><path d="M188.681 28.63a457.726 457.726 0 0 0-19.842-13.038 184.227 184.227 0 0 0 13.026 42.229 265.979 265.979 0 0 0 6.816-29.191" fill="#F47B09"/><path d="M48.931 218.9a380.838 380.838 0 0 1-17.615-24.327 383.332 383.332 0 0 0-7.97 12.487 219.337 219.337 0 0 1 23.206 13.053c.793-.401 1.588-.803 2.38-1.213" fill="#FFC900"/><path d="M23.347 207.06a379.768 379.768 0 0 0-16.079 29.098 264.762 264.762 0 0 0 39.284-16.045 219.708 219.708 0 0 0-23.205-13.053" fill="#FFCD00"/><path d="M76.273 146.087a222.61 222.61 0 0 1-22.465 18.074 381.99 381.99 0 0 0-4.877 6.087 264.802 264.802 0 0 1 38.434 24.325 266.108 266.108 0 0 0 14.469-11.824 318.457 318.457 0 0 1-25.561-36.662" fill="#FEB300"/><path d="M87.365 194.573a264.578 264.578 0 0 0-38.434-24.325 383.257 383.257 0 0 0-17.617 24.325A382.439 382.439 0 0 0 48.93 218.9a264.42 264.42 0 0 0 38.434-24.327" fill="#FFC400"/><path d="M126.777 157.812c4.137-4.716 8.08-9.54 11.826-14.467a264.59 264.59 0 0 1-24.33-38.428 387.736 387.736 0 0 0-6.088 4.876 222.435 222.435 0 0 1-18.076 22.461 318.361 318.361 0 0 1 36.668 25.558" fill="#FE9C00"/><path d="M126.777 157.812a318.361 318.361 0 0 0-36.668-25.558 223.462 223.462 0 0 1-6.758 7.077 221.123 221.123 0 0 1-7.078 6.754 318.404 318.404 0 0 0 25.56 36.664 269.283 269.283 0 0 0 12.893-12.048 270.768 270.768 0 0 0 12.05-12.89" fill="#FEAC00"/><path d="M164.146 102.54a219.919 219.919 0 0 1-13.055-23.202 378.9 378.9 0 0 0-12.488 7.967 381.538 381.538 0 0 1 24.33 17.611c.41-.79.813-1.584 1.213-2.376" fill="#FD9107"/><path d="M138.603 143.345a264.28 264.28 0 0 0 24.33-38.428 382.357 382.357 0 0 0-24.33-17.613 382.357 382.357 0 0 0-24.33 17.613 264.45 264.45 0 0 0 24.33 38.428" fill="#FE9800"/><path d="M180.195 63.262a380.516 380.516 0 0 0-29.105 16.076 220.485 220.485 0 0 0 13.056 23.202 264.66 264.66 0 0 0 16.049-39.278" fill="#FC8D06"/><path d="M129.833 3.066a221.556 221.556 0 0 1-.676-9.453 456.086 456.086 0 0 0-17.836-8.279 185.704 185.704 0 0 1-2.953 30.258 456.545 456.545 0 0 1 21.465-12.526" fill="#E77014"/><path d="M138.603-1.614a456.427 456.427 0 0 0-9.445-4.774c.158 3.155.382 6.307.675 9.454a458.701 458.701 0 0 1 8.77-4.68" fill="#E66F14"/><path d="M1.828 151.32c1.818.535 3.63 1.096 5.44 1.671a411.452 411.452 0 0 1-1.666-3.404c-1.253.593-2.512 1.17-3.774 1.733" fill="#FEA600"/><path d="M7.269 152.991a266.149 266.149 0 0 0-5.441-1.671 184.453 184.453 0 0 1-42.238 13.024 457.304 457.304 0 0 0-12.528 21.462 222.363 222.363 0 0 1 44.487 8.767 220.532 220.532 0 0 0 31.796-12.483 381.042 381.042 0 0 1-16.076-29.099" fill="#FEB500"/><path d="M57.204 113.19c-.453.452-.916.89-1.372 1.338 1.644.727 3.288 1.454 4.922 2.21-.756-1.633-1.483-3.278-2.212-4.922-.447.457-.885.92-1.338 1.373" fill="#FE9602"/><path d="M53.808 164.161a387.36 387.36 0 0 1 19.904-22.459 316.482 316.482 0 0 1-12.959-24.963 284.566 284.566 0 0 0-4.922-2.21c-15.103 14.794-32.113 26.482-50.23 35.059.551 1.134 1.105 2.27 1.668 3.403a264.584 264.584 0 0 1 39.283 16.046 222.028 222.028 0 0 0 7.256-4.876" fill="#FE9F00"/><path d="M7.269 152.991a381.042 381.042 0 0 0 16.076 29.1 219.888 219.888 0 0 0 23.207-13.055A264.574 264.574 0 0 0 7.269 152.99" fill="#FEB200"/><path d="M95.341 57.821a168.352 168.352 0 0 1-1.734 3.774c1.138.55 2.273 1.104 3.406 1.666a256.29 256.29 0 0 1-1.672-5.44" fill="#F98406"/><path d="M60.753 116.738a316.592 316.592 0 0 1 24.97 12.956 387.34 387.34 0 0 1 22.462-19.9c1.681-2.392 3.3-4.813 4.877-7.254a264.446 264.446 0 0 1-16.049-39.278 411.707 411.707 0 0 0-3.405-1.667c-8.578 18.115-20.267 35.12-35.066 50.221.73 1.645 1.455 3.289 2.211 4.922" fill="#FD8F06"/><path d="M85.722 129.694a316.592 316.592 0 0 0-24.969-12.956 317.854 317.854 0 0 0 12.96 24.964 389.644 389.644 0 0 1 5.935-6.073 385.285 385.285 0 0 1 6.074-5.935" fill="#FE9B00"/><path d="M97.013 63.262a380.982 380.982 0 0 1 29.104 16.075 220.556 220.556 0 0 0 12.486-31.792 222.189 222.189 0 0 1-8.77-44.479 456.545 456.545 0 0 0-21.465 12.526 184.302 184.302 0 0 1-13.027 42.23c.535 1.818 1.096 3.63 1.672 5.44" fill="#F47B0B"/><path d="M126.117 79.337a380.294 380.294 0 0 0-29.104-16.075 264.443 264.443 0 0 0 16.049 39.276 219.905 219.905 0 0 0 13.055-23.2" fill="#FC8E07"/><path d="M148.048-6.387a458.958 458.958 0 0 0-9.445 4.773 453.058 453.058 0 0 1 8.77 4.68c.292-3.147.52-6.299.675-9.453" fill="#E66F14"/><path d="M138.603 47.546a222.12 222.12 0 0 0 8.771-44.48 450.298 450.298 0 0 0-8.771-4.68 453.136 453.136 0 0 0-8.77 4.68 222.189 222.189 0 0 0 8.77 44.48" fill="#F1770D"/><path d="M73.712 141.702a387.648 387.648 0 0 0-19.904 22.459 222.215 222.215 0 0 0 22.465-18.076 296.166 296.166 0 0 1-2.56-4.383" fill="#FEA800"/><path d="M108.185 109.793a387.715 387.715 0 0 0-22.463 19.9c1.467.845 2.93 1.692 4.385 2.561a222.18 222.18 0 0 0 18.078-22.46" fill="#FE9800"/><path d="M83.351 139.331a226.648 226.648 0 0 0 6.756-7.076 301.645 301.645 0 0 0-4.385-2.561 381.117 381.117 0 0 0-6.074 5.935 381.073 381.073 0 0 0-5.936 6.074 322.699 322.699 0 0 0 2.561 4.384 224.516 224.516 0 0 0 7.078-6.756" fill="#FE9E00"/><path d="M67.798 43.924A460.104 460.104 0 0 1 88.525 28.63 267.737 267.737 0 0 1 84.63-25.38a423.845 423.845 0 0 0-4.387-1.574C81.71-2.895 77.57 21.442 67.798 43.924" fill="#E87113"/><path d="M88.527 28.63a456.505 456.505 0 0 1 19.842-13.038 185.815 185.815 0 0 0 2.953-30.258A457.242 457.242 0 0 0 84.63-25.379a267.52 267.52 0 0 0 3.896 54.009" fill="#E97113"/><path d="M5.601 149.588a380.022 380.022 0 0 1-12.307-28.275 152.183 152.183 0 0 1-5.366 2.468 458.955 458.955 0 0 0-15.297 20.725 266.435 266.435 0 0 1 29.196 6.814c1.264-.563 2.522-1.14 3.774-1.732" fill="#FE9D00"/><path d="M-27.37 144.506a456.412 456.412 0 0 0-13.04 19.839A184.456 184.456 0 0 0 1.828 151.32a266.328 266.328 0 0 0-29.196-6.814" fill="#FEA800"/><path d="M58.542 111.816a318.154 318.154 0 0 1-12.289-32.443 155.049 155.049 0 0 1-10.838 12.03 155.886 155.886 0 0 1-12.033 10.839 317.794 317.794 0 0 1 32.45 12.285c.456-.446.92-.885 1.372-1.338.453-.453.891-.916 1.338-1.373" fill="#FD9207"/><path d="M23.384 102.242a153.249 153.249 0 0 1-30.09 19.072A380.429 380.429 0 0 0 5.6 149.588c18.12-8.577 35.127-20.265 50.23-35.06a317.483 317.483 0 0 0-32.447-12.286" fill="#FE9B00"/><path d="M93.609 61.595c.592-1.253 1.17-2.51 1.732-3.774a266.43 266.43 0 0 1-6.814-29.191 459.025 459.025 0 0 0-20.73 15.294 150.488 150.488 0 0 1-2.467 5.365 380.403 380.403 0 0 1 28.279 12.306" fill="#F77E07"/><path d="M58.542 111.816c14.8-15.101 26.488-32.105 35.066-50.22A380.661 380.661 0 0 0 65.33 49.288a152.935 152.935 0 0 1-19.076 30.085 318.154 318.154 0 0 0 12.29 32.443" fill="#FC8D06"/><path d="M108.369 15.592a458.045 458.045 0 0 0-19.842 13.037 266.505 266.505 0 0 0 6.815 29.192 184.385 184.385 0 0 0 13.027-42.23" fill="#F47B09"/><path d="M42.181 65.483a319.767 319.767 0 0 1-4.44-18.91A128.523 128.523 0 0 1 17.256 73.25 128.551 128.551 0 0 1-9.423 93.73 319.907 319.907 0 0 1 9.49 98.168a466.705 466.705 0 0 1 32.691-32.684" fill="#FA8706"/><path d="M-9.423 93.728a127.629 127.629 0 0 1-5.82 3.158 381.305 381.305 0 0 0 7.426 21.537A463.312 463.312 0 0 1 9.49 98.168a320.677 320.677 0 0 0-18.913-4.44" fill="#FE9504"/><path d="M40.898 40.754a382.06 382.06 0 0 1 21.543 7.424 466.486 466.486 0 0 1 5.357-4.254C77.57 21.442 81.71-2.894 80.244-26.953a459.87 459.87 0 0 0-26.64-8.519c3.624 25.808-.614 52.502-12.706 76.226" fill="#E97212"/><path d="M42.181 65.483a462.811 462.811 0 0 1 20.26-17.305 382.547 382.547 0 0 0-21.54-7.423c-1 1.96-2.056 3.9-3.16 5.818a319.767 319.767 0 0 0 4.44 18.91" fill="#F98206"/><path d="M46.255 79.374a316.99 316.99 0 0 1-4.074-13.891A468.426 468.426 0 0 0 25.43 81.421 468.46 468.46 0 0 0 9.49 98.168a318.993 318.993 0 0 1 13.895 4.073 156.384 156.384 0 0 0 12.031-10.837c3.861-3.86 7.473-7.88 10.84-12.03" fill="#FB8C06"/><path d="M9.49 98.168a462.749 462.749 0 0 0-17.307 20.257c.366.964.737 1.926 1.112 2.888a153.178 153.178 0 0 0 30.09-19.073A319.403 319.403 0 0 0 9.49 98.168" fill="#FE9603"/><path d="M65.332 49.288a154.237 154.237 0 0 0 2.466-5.365 475.425 475.425 0 0 0-5.358 4.255c.965.366 1.927.737 2.892 1.11" fill="#F77E07"/><path d="M46.255 79.374a153.179 153.179 0 0 0 19.076-30.085c-.965-.374-1.926-.746-2.89-1.111a462.811 462.811 0 0 0-20.26 17.305 316.99 316.99 0 0 0 4.074 13.89" fill="#F98606"/><path d="M36.357 39.37a321.121 321.121 0 0 1-4.535-38.203A106.516 106.516 0 0 1 19.8 34.838a382.87 382.87 0 0 1 16.557 4.531" fill="#EC7213"/><path d="M17.257 73.25A128.454 128.454 0 0 0 37.74 46.573a311.957 311.957 0 0 1-1.38-7.203 383.435 383.435 0 0 0-16.56-4.532A107.074 107.074 0 0 1 2.126 58.121a107.15 107.15 0 0 1-23.287 17.67 383.616 383.616 0 0 0 4.532 16.556c2.406.431 4.807.892 7.205 1.38a128.495 128.495 0 0 0 26.68-20.477" fill="#F98606"/><g transform="translate(31 -37.783)"><mask id="q" fill="#fff"><use xlink:href="#p"/></mask><path d="M.822 1.574a107.525 107.525 0 0 1 0 37.376 320.708 320.708 0 0 0 4.535 38.203c1.518.451 3.029.913 4.54 1.384C21.993 54.813 26.228 28.12 22.604 2.312A460.224 460.224 0 0 0 1.127-3.284C1.007-1.664.916-.046.822 1.574" fill="#EC7312" mask="url(#q)"/></g><path d="M40.898 40.754c-1.51-.47-3.023-.933-4.541-1.384.434 2.405.895 4.806 1.383 7.203a126.164 126.164 0 0 0 3.158-5.819" fill="#F77D07"/><g transform="translate(1 -37.783)"><mask id="s" fill="#fff"><use xlink:href="#r"/></mask><path d="M.458 68.512a384.328 384.328 0 0 1 18.34 4.109A106.445 106.445 0 0 0 30.822 38.95a321.866 321.866 0 0 1 0-37.377 105.912 105.912 0 0 0-1.047-5.178c-.654-.15-1.308-.295-1.963-.444A551.4 551.4 0 0 0 13.571 6.55C16.854 27.735 12.48 49.872.457 68.512" fill="#E77113" mask="url(#s)"/></g><path d="M-10.482 45.514A89.422 89.422 0 0 1-25.27 57.452a384.228 384.228 0 0 0 4.11 18.34A107.058 107.058 0 0 0 2.126 58.12 107.04 107.04 0 0 0 19.8 34.838a384.642 384.642 0 0 0-18.342-4.11 89.464 89.464 0 0 1-11.94 14.786" fill="#F98206"/><path d="M31.822 1.166a107.525 107.525 0 0 0 0-37.376 321.422 321.422 0 0 0 0 37.376" fill="#E06D14"/><path d="M-14.732 27.872c5.412.835 10.81 1.79 16.188 2.856C13.48 12.09 17.851-10.048 14.572-31.234A557.444 557.444 0 0 0 .708-20.208c.609 16.923-4.541 34.003-15.44 48.08" fill="#E67013"/><path d="M1.457 30.729a383.407 383.407 0 0 0-16.188-2.857 75.145 75.145 0 0 1-6.259 7.136 74.757 74.757 0 0 1-7.137 6.257A384.27 384.27 0 0 0-25.27 57.45a89.45 89.45 0 0 0 14.787-11.937A89.464 89.464 0 0 0 1.457 30.73" fill="#F77E07"/><path d="M-29.408 25.897c4.902.565 9.795 1.221 14.676 1.975C-3.832 13.796 1.317-3.284.708-20.208A560.045 560.045 0 0 0-12.168-9.294a61.605 61.605 0 0 1-17.24 35.191" fill="#E77013"/></g></g><g fill="#FFF"><path d="M57.725 121.657l-.47 3.755-4.909 1.853c-.148.06-.475.117-.982.167l-.005.039c.205.072.52.22.946.446l4.261 2.997-.473 3.776-6.509-5.358L42 132.556l.483-3.854 4.492-1.485a6.359 6.359 0 0 1 1.246-.274l.005-.04a11.91 11.91 0 0 1-1.178-.593l-3.92-2.756.441-3.53 6.484 5.084 7.672-3.451zM55.959 108.283l-5.027-.104a5.92 5.92 0 0 1-1.29-.189l-.026.075c.382.172.747.384 1.094.634l4.067 3.015 1.182-3.431zm7.03-3.121l-1.133 3.29-3.327-.067-1.642 4.768 2.673 1.966-1.127 3.272-11.8-9.472 1.233-3.58 15.124-.177zM73.78 87.163l-1.716 2.651-7.171-4.586a44.675 44.675 0 0 1-2.502-1.741l-.043.067c.646.608 1.095 1.072 1.347 1.39l6.343 8.004-1.42 2.194-9.903-2.316c-.259-.063-.896-.295-1.914-.695l-.048.075a53.752 53.752 0 0 1 3.18 1.88l6.627 4.24-1.564 2.418L53.01 93.08l2.543-3.932 8.68 2.109c.591.143 1.254.367 1.987.671l.032-.05a17.715 17.715 0 0 1-1.424-1.58l-5.513-6.968 2.478-3.832 11.986 7.666zM79.456 73.46l-4.409-2.405a5.886 5.886 0 0 1-1.056-.76l-.057.054c.258.328.484.683.675 1.066l2.203 4.543 2.644-2.497zm7.685.47l-2.537 2.395-2.918-1.591-3.674 3.471 1.455 2.973-2.521 2.382-6.054-13.827 2.76-2.607L87.14 73.93zM91.786 59.018c-.66-1.05-1.622-1.184-2.886-.4l-1.231.764 2.098 3.346 1.18-.733c.563-.348.925-.801 1.086-1.36.16-.558.079-1.097-.247-1.617zm8.72 6.285l-3.128 1.94-3.164-2.336c-1.03-.758-1.888-.925-2.573-.5l-.59.367 2.886 4.603-2.723 1.69-7.542-12.025 4.318-2.677c2.934-1.82 5.085-1.64 6.452.54.523.833.727 1.684.613 2.555-.114.87-.536 1.687-1.267 2.451l.02.034c.849-.216 1.813.044 2.891.78l3.807 2.578zM108.356 61.93l-2.957 1.243-5.55-13.052 2.957-1.243zM126.924 56.72l-3.159.715-7.71-7.39c-.452-.431-.772-.76-.96-.989l-.039.01c.17.501.365 1.24.588 2.217l1.735 7.594-2.956.668-3.156-13.82 3.372-.761 7.436 7.167.955.97.039-.009c-.128-.322-.299-.95-.512-1.88l-1.745-7.643 2.956-.667 3.156 13.819zM151.854 56.367c-1.073.41-2.448.543-4.124.399-1.406-.121-2.614-.51-3.624-1.17a5.91 5.91 0 0 1-2.237-2.657c-.482-1.113-.662-2.372-.54-3.777.128-1.463.563-2.75 1.304-3.86a6.739 6.739 0 0 1 2.933-2.47c1.214-.537 2.544-.744 3.99-.619 1.366.118 2.519.392 3.459.824l-.267 3.061c-.914-.647-1.972-1.022-3.173-1.126-1.34-.115-2.455.215-3.344.992-.889.776-1.394 1.864-1.515 3.262-.12 1.372.175 2.495.883 3.37.709.873 1.71 1.366 3.003 1.478a6.74 6.74 0 0 0 3.505-.611l-.253 2.904zM165.678 60.276l-8.241-2.251 3.774-13.665 7.925 2.165-.692 2.506-4.83-1.32-.84 3.04 4.495 1.228-.69 2.497-4.494-1.228-.864 3.126 5.146 1.405zM181.42 56.277c.544-1.114.146-1.995-1.195-2.642l-1.306-.63-1.73 3.547 1.25.604c.597.288 1.175.351 1.736.19.561-.161.977-.518 1.246-1.069zm-.709 10.687l-3.316-1.601.305-3.906c.097-1.272-.218-2.083-.945-2.434l-.626-.302-2.382 4.881-2.887-1.394 6.222-12.749 4.577 2.21c3.111 1.502 4.103 3.408 2.975 5.72-.431.883-1.048 1.508-1.85 1.876-.8.367-1.721.446-2.76.237l-.018.036c.635.6.926 1.55.873 2.85l-.168 4.576zM200.079 66.49l-3.258-2.417-6.958 9.275-2.58-1.914 6.957-9.276-3.242-2.405 1.563-2.083 9.08 6.736zM199.155 81.71l-2.256-2.27 10.137-9.96 2.256 2.271zM217.823 86.323l-2.99-4.021-2.812 2.068 2.747 3.695-2.094 1.539-2.747-3.695-4.45 3.272-1.909-2.567 11.46-8.424 4.897 6.588zM212.868 100.933l-1.52-2.811 12.553-6.709 1.52 2.812zM218.619 114.859l-2.91-7.991 13.399-4.825 2.798 7.684-2.458.885-1.705-4.683-2.98 1.073 1.586 4.358-2.448.882-1.587-4.359-3.064 1.104 1.817 4.99zM228.662 128.147c1.349-.205 2.346-.758 2.992-1.66.645-.901.863-2.035.653-3.403l-.238-1.543-8.929 1.357.24 1.563c.206 1.342.778 2.346 1.715 3.013.937.668 2.126.892 3.567.673m.55 3.315c-1.428.217-2.738.102-3.93-.347a6.385 6.385 0 0 1-2.942-2.242c-.771-1.046-1.27-2.305-1.496-3.776l-.763-4.963 14.087-2.142.763 4.963c.765 4.975-1.142 7.811-5.72 8.507M218.877 162.102l.601-3.096 8.372 1.608c.872.168 1.862.398 2.973.692l.015-.078c-.827-.326-1.417-.59-1.77-.792l-8.88-5.088.498-2.561 10.06-1.51c.264-.037.942-.058 2.036-.062l.018-.088a53.794 53.794 0 0 1-3.655-.57l-7.737-1.486.548-2.824 13.992 2.687-.891 4.59-8.846 1.25c-.604.085-1.303.122-2.096.11l-.012.059c.717.305 1.354.619 1.913.94l7.722 4.433-.869 4.473-13.992-2.687zM218.935 179.686c1.313.614 2.48.817 3.5.61 1.02-.207 1.766-.809 2.236-1.805.474-1.001.472-1.981-.004-2.94-.477-.957-1.348-1.732-2.613-2.324-1.26-.588-2.404-.764-3.436-.525-1.031.238-1.778.847-2.24 1.824-.471.996-.48 1.956-.028 2.881.452.925 1.314 1.685 2.585 2.279m-1.276 3.116c-1.32-.616-2.368-1.433-3.147-2.449-.779-1.015-1.221-2.14-1.327-3.372-.105-1.232.131-2.46.709-3.681.564-1.193 1.346-2.138 2.345-2.835a6.3 6.3 0 0 1 3.355-1.14c1.238-.062 2.486.201 3.745.79 1.337.625 2.398 1.446 3.185 2.461a6.346 6.346 0 0 1 1.343 3.396c.108 1.249-.136 2.505-.734 3.769-.558 1.18-1.331 2.113-2.321 2.797-.99.684-2.107 1.05-3.352 1.097-1.245.047-2.512-.23-3.801-.833M212.198 195.889c.833.63 1.723.325 2.668-.914l.727-.952-2.69-2.032-.854 1.118c-.4.525-.588 1.034-.562 1.53.025.494.262.911.71 1.25m-5.138-3.173c.459.347.941.453 1.448.318.506-.135.983-.496 1.432-1.084l1.064-1.393-2.992-2.259-1.052 1.378c-.44.577-.654 1.138-.64 1.681.013.544.26.997.74 1.36m-2.075 2.652c-1.034-.781-1.576-1.771-1.625-2.97-.05-1.2.416-2.442 1.398-3.728l3.31-4.337 11.35 8.569-3.136 4.108c-.957 1.255-1.928 2.045-2.914 2.372-.986.327-1.898.174-2.737-.46-.591-.446-.969-1.047-1.132-1.803-.163-.756-.082-1.532.243-2.329l-.031-.023c-.692.71-1.473 1.123-2.344 1.239-.87.116-1.664-.097-2.382-.638M195.254 199.02l2.316-2.21 9.864 10.229-2.317 2.209zM183.356 208.258l6.894-4.922 8.311 11.512-2.608 1.862-6.792-9.409-4.286 3.06zM171.153 214.573l7.678-3.733 6.26 12.73-7.384 3.59-1.148-2.334 4.5-2.188-1.393-2.832-4.187 2.036-1.143-2.326 4.186-2.036-1.431-2.912-4.794 2.33zM150.05 227.452c.216 1.34.779 2.329 1.689 2.965.91.636 2.053.845 3.427.627l1.55-.246-1.424-8.871-1.57.249c-1.348.214-2.354.79-3.019 1.725-.665.936-.882 2.12-.653 3.551m-3.33.57c-.228-1.42-.12-2.722.324-3.91.443-1.188 1.188-2.169 2.234-2.942 1.047-.773 2.31-1.277 3.788-1.512l4.985-.791 2.247 13.994-4.985.791c-4.999.794-7.863-1.083-8.593-5.63M131.437 220.608l8.541.293-.49 14.162-8.214-.28.09-2.598 5.006.171.109-3.15-4.658-.16.09-2.588 4.657.16.113-3.24-5.334-.182zM111.252 231.2l7.906-12.762 3.55.79 1.616 14.883-3.375-.751-.731-10.27c-.041-.57-.032-1.05.03-1.442l-.059-.013a7.476 7.476 0 0 1-.62 1.35l-5.039 8.945-3.278-.73zM101.894 212.217l7.845 3.372-5.654 13.008-7.544-3.243 1.037-2.385 4.597 1.976 1.258-2.894-4.278-1.839 1.033-2.377 4.278 1.84 1.293-2.976-4.898-2.105zM89.905 204.906l7.116 4.599-7.765 11.883-2.691-1.74 6.346-9.711-4.425-2.86zM74.318 200.506c-1.004 1.042-1.57 2.077-1.698 3.105-.128 1.028.208 1.922 1.006 2.683.804.766 1.739 1.077 2.804.933 1.065-.143 2.082-.717 3.049-1.72.962-1 1.494-2.023 1.596-3.071.102-1.049-.24-1.946-1.024-2.694-.799-.761-1.711-1.076-2.737-.945-1.025.131-2.024.7-2.996 1.71m-2.563-2.197c1.008-1.046 2.12-1.775 3.337-2.185 1.217-.41 2.43-.468 3.637-.175 1.208.294 2.303.908 3.283 1.843.957.911 1.608 1.95 1.954 3.114a6.209 6.209 0 0 1 .016 3.526c-.335 1.186-.985 2.278-1.947 3.277-1.022 1.06-2.143 1.8-3.361 2.217a6.438 6.438 0 0 1-3.665.182c-1.225-.295-2.344-.926-3.358-1.893-.947-.902-1.59-1.929-1.925-3.08-.336-1.15-.329-2.32.023-3.509.352-1.189 1.02-2.294 2.006-3.317M61.463 188.388c-1.207.824-1.328 1.936-.361 3.338l.714 1.035 3.663-2.498-.714-1.035c-.966-1.402-2.067-1.682-3.302-.84m-2.01-2.704c.777-.529 1.598-.805 2.465-.83.867-.023 1.712.208 2.533.694s1.545 1.183 2.17 2.09l.866 1.256 4.049-2.761 1.815 2.632-11.753 8.015-2.843-4.124c-2.031-2.945-1.798-5.269.699-6.972M61.514 167.745l3.49 7.757-13.007 5.789-3.357-7.46 2.386-1.061 2.046 4.546 2.893-1.288-1.903-4.23 2.376-1.058 1.904 4.23 2.975-1.324-2.18-4.843zM48.401 158.2c-1.21.292-1.64 1.157-1.291 2.598l.34 1.403 3.855-.926-.327-1.344c-.155-.64-.474-1.125-.956-1.454-.481-.328-1.022-.42-1.62-.276zm8.747-6.247l.866 3.564-3.227 2.248c-1.049.734-1.478 1.49-1.288 2.272l.163.672 5.303-1.273.753 3.103-13.852 3.326-1.194-4.918c-.812-3.343.038-5.317 2.55-5.92.96-.23 1.836-.154 2.631.228.795.382 1.442 1.038 1.94 1.969l.039-.01c.061-.868.614-1.696 1.657-2.481l3.66-2.78z"/></g><path d="M169.59 173.48h-11.002c-.512-.004-1.022-.293-1.257-.752l-18.658-33.315a1.457 1.457 0 0 1-.168-.53 1.44 1.44 0 0 1-.181.53l-18.695 33.315a1.423 1.423 0 0 1-1.193.751h-11.03c-1.007.023-1.749-1.27-1.243-2.14l18.234-32.593-18.234-32.634c-.44-.784.084-1.933.982-2.106.082-.008.18-.008.26 0h11.03c.483.01.952.303 1.194.711l18.695 33.305c.091.175.153.367.18.547.02-.18.087-.372.169-.547l18.658-33.305c.24-.427.745-.711 1.257-.711h11.003c.976.01 1.711 1.247 1.244 2.106l-18.226 32.634 18.226 32.594c.51.87-.236 2.162-1.244 2.14z" fill="#FFF"/></g></svg>